<svg xmlns="http://www.w3.org/2000/svg" width="684" height="500" viewBox="0 0 171 125"><path fill="#0a426b" d="M161.14 108.5218h-.839v6.195H161c2.824 0 4.166-1.194 4.166-3.251 0-1.973-1.286-2.944-4.026-2.944m5.144 16.115-4.11-7.003c-.364.028-.783.028-1.174.028h-.699v6.975h-3.746v-19.17h4.585c5.422 0 7.94 2.11 7.94 5.972 0 2.362-1.119 4.252-3.328 5.308l4.948 7.89zm-13.501-19.17h-3.745v7.972h-7.689v-7.972h-3.745v19.17h3.745v-8.141h7.689v8.141h3.745zm-18.421 0h-11.209v19.17h11.684l.224-3.058h-8.163v-5.083h6.71v-3.057h-6.71v-4.917h7.241zm-13.109 0h-3.801l-2.935 13.252h-.057l-3.383-13.252h-3.549l-3.439 13.252h-.057l-2.908-13.252h-4.08l5.228 19.17h3.104l3.716-12.976h.056l3.746 12.976h3.105zm-25.55 1.166c-.614-.445-2.013-1.501-4.724-1.501-3.858 0-6.15 2.195-6.15 4.918 0 2.557 1.145 3.917 3.801 5.668l2.096 1.388c1.483.973 2.042 1.641 2.042 2.917 0 .946-.922 1.78-2.908 1.78-2.013 0-3.44-1.167-4.081-1.805l-1.231 3.111c.643.529 2.265 1.86 5.368 1.86 4.669 0 6.57-2.75 6.57-5.416 0-2.447-1.146-3.974-3.773-5.586l-2.098-1.278c-1.566-.943-2.125-1.528-2.125-2.723 0-.944.811-1.722 2.601-1.722 1.844 0 2.991.972 3.439 1.333zm-13.306-1.166H71.188v19.17h11.686l.222-3.058h-8.162v-5.083h6.71v-3.057h-6.71v-4.917h7.239zm-25.688 3.084v13.002h.613c4.587 0 7.019-1.862 7.019-6.781 0-4.61-2.294-6.221-6.766-6.221zm-3.746 16.086v-19.17h4.612c7.325 0 10.679 2.694 10.679 9.305 0 6.919-4.193 9.865-10.932 9.865zm-3.772-19.17h-3.745v11.89h-.058l-7.939-11.89h-3.215v19.17h3.747v-11.975h.056l7.939 11.975h3.215zm-18.532 0h-3.607v11.252c0 3.611-1.202 5.111-3.857 5.111-2.545 0-3.747-1.556-3.747-5.111v-11.252h-3.745v11.14c0 5.78 2.263 8.362 7.352 8.362 5.087 0 7.604-2.75 7.604-8.362zm-25.383 10.973H4.047v5.197h1.061c2.852 0 4.055-.918 4.055-2.64 0-1.64-1.371-2.557-3.887-2.557m-.419-8.029h-.81v5.14h.783c2.655 0 3.885-1.028 3.885-2.751 0-1.472-1.09-2.389-3.858-2.389m4.166 6.336v.054c1.817.362 3.997 1.778 3.997 4.445 0 3.167-2.376 5.391-7.912 5.391H.3v-19.17h4.557c5.648 0 7.631 1.944 7.631 5.055 0 2.75-1.817 3.724-3.465 4.225"/><path fill="#0a426b" d="M42.368 75.5475c5.257-1.587 10.959-3.511 14.883-4.136-.624 3.926-2.548 9.626-4.135 14.884l9.228-.114c3.536-8.994 6.878-20.052 8.144-28.007-7.955 1.267-19.011 4.611-28.007 8.144Z"/><path fill="#0a426b" d="M53.1161.0312c1.587 5.258 3.511 10.959 4.134 14.884-3.924-.625-9.625-2.549-14.882-4.136l.112 9.228c8.996 3.536 20.054 6.878 28.009 8.144-1.267-7.953-4.609-19.011-8.144-28.007z"/><path fill="#0a426b" d="M117.8835 86.2963c-1.587-5.258-3.511-10.959-4.136-14.884 3.926.625 9.626 2.549 14.884 4.136l-.114-9.229c-8.994-3.535-20.052-6.879-28.007-8.144 1.267 7.954 4.611 19.011 8.144 28.007z"/><path fill="#0a426b" d="M128.6322 10.7794c-5.258 1.587-10.959 3.511-14.884 4.136.625-3.926 2.549-9.626 4.136-14.884l-9.229.112c-3.535 8.996-6.877 20.054-8.144 28.009 7.954-1.267 19.011-4.609 28.007-8.144z"/><path fill="#a3b2b9" d="M128.6337 28.0885c-7.846 2.965-22.911 7.447-37.156 9.125 1.683-14.253 6.116-29.331 9.077-37.182h-30.108c2.962 7.851 7.394 22.929 9.076 37.182-14.243-1.678-29.309-6.16-37.153-9.125v30.15c7.844-2.965 22.91-7.445 37.153-9.125-1.682 14.253-6.114 29.331-9.076 37.183h30.108c-2.961-7.852-7.394-22.93-9.077-37.183 14.245 1.68 29.31 6.16 37.156 9.125z"/></svg>