<?xml version="1.0" encoding="UTF-8" standalone="no"?>
<!-- Created with Inkscape (http://www.inkscape.org/) -->
<svg
   xmlns:dc="http://purl.org/dc/elements/1.1/"
   xmlns:cc="http://creativecommons.org/ns#"
   xmlns:rdf="http://www.w3.org/1999/02/22-rdf-syntax-ns#"
   xmlns:svg="http://www.w3.org/2000/svg"
   xmlns="http://www.w3.org/2000/svg"
   xmlns:xlink="http://www.w3.org/1999/xlink"
   xmlns:sodipodi="http://sodipodi.sourceforge.net/DTD/sodipodi-0.dtd"
   xmlns:inkscape="http://www.inkscape.org/namespaces/inkscape"
   id="svg3530"
   sodipodi:version="0.32"
   inkscape:version="0.46"
   width="317.623328307"
   height="314.838335499" viewBox="0 0 400.0 396.49271"
   xml:space="preserve"
   sodipodi:docname="EDA.svg"
   version="1.0"
   inkscape:output_extension="org.inkscape.output.svg.inkscape"><metadata
     id="metadata3535"><rdf:RDF><cc:Work
         rdf:about=""><dc:format>image/svg+xml</dc:format><dc:type
           rdf:resource="http://purl.org/dc/dcmitype/StillImage" /></cc:Work></rdf:RDF></metadata><defs
     id="defs3533"><linearGradient
       x1="0"
       y1="0"
       x2="1"
       y2="0"
       gradientUnits="userSpaceOnUse"
       gradientTransform="matrix(-623.99805,0,0,623.99805,609.82481,1083.1602)"
       spreadMethod="pad"
       id="linearGradient3553"><stop
         style="stop-opacity:1;stop-color:#c9def4"
         offset="0"
         id="stop3555" /><stop
         style="stop-opacity:1;stop-color:#ffffff"
         offset="0.86972"
         id="stop3557" /><stop
         style="stop-opacity:1;stop-color:#ffffff"
         offset="0.86972"
         id="stop3559" /><stop
         style="stop-opacity:1;stop-color:#ffffff"
         offset="1"
         id="stop3561" /></linearGradient><linearGradient
       x1="0"
       y1="0"
       x2="1"
       y2="0"
       gradientUnits="userSpaceOnUse"
       gradientTransform="matrix(48.733078,0,0,-48.733078,44.421814,772.81804)"
       spreadMethod="pad"
       id="linearGradient3963"><stop
         style="stop-opacity:1;stop-color:#a7a6a6"
         offset="0"
         id="stop3965" /><stop
         style="stop-opacity:1;stop-color:#e9e9e9"
         offset="1"
         id="stop3967" /></linearGradient><linearGradient
       x1="0"
       y1="0"
       x2="1"
       y2="0"
       gradientUnits="userSpaceOnUse"
       gradientTransform="matrix(44.981216,0,0,-44.981216,44.421814,774.21509)"
       spreadMethod="pad"
       id="linearGradient4001"><stop
         style="stop-opacity:1;stop-color:#203c8c"
         offset="0"
         id="stop4003" /><stop
         style="stop-opacity:1;stop-color:#1476c6"
         offset="1"
         id="stop4005" /></linearGradient><linearGradient
       x1="0"
       y1="0"
       x2="1"
       y2="0"
       gradientUnits="userSpaceOnUse"
       gradientTransform="matrix(48.947998,0,0,-48.947998,40.455032,776.61699)"
       spreadMethod="pad"
       id="linearGradient4039"><stop
         style="stop-opacity:1;stop-color:#203c8c"
         offset="0"
         id="stop4041" /><stop
         style="stop-opacity:1;stop-color:#1476c6"
         offset="1"
         id="stop4043" /></linearGradient><linearGradient
       x1="0"
       y1="0"
       x2="1"
       y2="0"
       gradientUnits="userSpaceOnUse"
       gradientTransform="matrix(44.981216,0,0,-44.981216,48.17366,784.07249)"
       spreadMethod="pad"
       id="linearGradient4077"><stop
         style="stop-opacity:1;stop-color:#50ade5"
         offset="0"
         id="stop4079" /><stop
         style="stop-opacity:1;stop-color:#c9def4"
         offset="0.987732"
         id="stop4081" /><stop
         style="stop-opacity:1;stop-color:#c9def4"
         offset="1"
         id="stop4083" /></linearGradient><linearGradient
       x1="0"
       y1="0"
       x2="1"
       y2="0"
       gradientUnits="userSpaceOnUse"
       gradientTransform="matrix(-44.981216,0,0,-44.981216,85.436249,755.77269)"
       spreadMethod="pad"
       id="linearGradient4117"><stop
         style="stop-opacity:1;stop-color:#50ade5"
         offset="0"
         id="stop4119" /><stop
         style="stop-opacity:1;stop-color:#c9def4"
         offset="0.987732"
         id="stop4121" /><stop
         style="stop-opacity:1;stop-color:#c9def4"
         offset="1"
         id="stop4123" /></linearGradient><linearGradient
       x1="0"
       y1="0"
       x2="1"
       y2="0"
       gradientUnits="userSpaceOnUse"
       gradientTransform="matrix(46.508591,-46.515167,46.515167,46.508591,47.70253,799.80417)"
       spreadMethod="pad"
       id="linearGradient4157"><stop
         style="stop-opacity:1;stop-color:#81ad2a"
         offset="0"
         id="stop4159" /><stop
         style="stop-opacity:1;stop-color:#b3dc23"
         offset="1"
         id="stop4161" /></linearGradient><linearGradient
       x1="0"
       y1="0"
       x2="1"
       y2="0"
       gradientUnits="userSpaceOnUse"
       gradientTransform="matrix(48.796219,0,0,-48.796219,44.358383,774.96901)"
       spreadMethod="pad"
       id="linearGradient4195"><stop
         style="stop-opacity:1;stop-color:#1c357b"
         offset="0"
         id="stop4197" /><stop
         style="stop-opacity:1;stop-color:#203c8c"
         offset="0.987732"
         id="stop4199" /><stop
         style="stop-opacity:1;stop-color:#203c8c"
         offset="1"
         id="stop4201" /></linearGradient><linearGradient
       x1="0"
       y1="0"
       x2="1"
       y2="0"
       gradientUnits="userSpaceOnUse"
       gradientTransform="matrix(66.886322,0,0,-66.886322,113.11342,775.71904)"
       spreadMethod="pad"
       id="linearGradient4245"><stop
         style="stop-opacity:1;stop-color:#394a9a"
         offset="0"
         id="stop4247" /><stop
         style="stop-opacity:1;stop-color:#4883cc"
         offset="1"
         id="stop4249" /></linearGradient><linearGradient
       inkscape:collect="always"
       xlink:href="#linearGradient3963"
       id="linearGradient4383"
       gradientUnits="userSpaceOnUse"
       gradientTransform="matrix(48.733078,0,0,-48.733078,44.421814,772.81804)"
       spreadMethod="pad"
       x1="0"
       y1="0"
       x2="1"
       y2="0" /><linearGradient
       inkscape:collect="always"
       xlink:href="#linearGradient4001"
       id="linearGradient4385"
       gradientUnits="userSpaceOnUse"
       gradientTransform="matrix(44.981216,0,0,-44.981216,44.421814,774.21509)"
       spreadMethod="pad"
       x1="0"
       y1="0"
       x2="1"
       y2="0" /><linearGradient
       inkscape:collect="always"
       xlink:href="#linearGradient4039"
       id="linearGradient4387"
       gradientUnits="userSpaceOnUse"
       gradientTransform="matrix(48.947998,0,0,-48.947998,40.455032,776.61699)"
       spreadMethod="pad"
       x1="0"
       y1="0"
       x2="1"
       y2="0" /><linearGradient
       inkscape:collect="always"
       xlink:href="#linearGradient4077"
       id="linearGradient4389"
       gradientUnits="userSpaceOnUse"
       gradientTransform="matrix(44.981216,0,0,-44.981216,48.17366,784.07249)"
       spreadMethod="pad"
       x1="0"
       y1="0"
       x2="1"
       y2="0" /><linearGradient
       inkscape:collect="always"
       xlink:href="#linearGradient4117"
       id="linearGradient4391"
       gradientUnits="userSpaceOnUse"
       gradientTransform="matrix(-44.981216,0,0,-44.981216,85.436249,755.77269)"
       spreadMethod="pad"
       x1="0"
       y1="0"
       x2="1"
       y2="0" /><linearGradient
       inkscape:collect="always"
       xlink:href="#linearGradient4157"
       id="linearGradient4393"
       gradientUnits="userSpaceOnUse"
       gradientTransform="matrix(46.508591,-46.515167,46.515167,46.508591,47.70253,799.80417)"
       spreadMethod="pad"
       x1="0"
       y1="0"
       x2="1"
       y2="0" /><linearGradient
       inkscape:collect="always"
       xlink:href="#linearGradient4195"
       id="linearGradient4395"
       gradientUnits="userSpaceOnUse"
       gradientTransform="matrix(48.796219,0,0,-48.796219,44.358383,774.96901)"
       spreadMethod="pad"
       x1="0"
       y1="0"
       x2="1"
       y2="0" /><linearGradient
       inkscape:collect="always"
       xlink:href="#linearGradient3963"
       id="linearGradient4489"
       gradientUnits="userSpaceOnUse"
       gradientTransform="matrix(48.733078,0,0,-48.733078,44.421814,772.81804)"
       spreadMethod="pad"
       x1="0"
       y1="0"
       x2="1"
       y2="0" /><linearGradient
       inkscape:collect="always"
       xlink:href="#linearGradient4001"
       id="linearGradient4491"
       gradientUnits="userSpaceOnUse"
       gradientTransform="matrix(44.981216,0,0,-44.981216,44.421814,774.21509)"
       spreadMethod="pad"
       x1="0"
       y1="0"
       x2="1"
       y2="0" /><linearGradient
       inkscape:collect="always"
       xlink:href="#linearGradient4039"
       id="linearGradient4493"
       gradientUnits="userSpaceOnUse"
       gradientTransform="matrix(48.947998,0,0,-48.947998,40.455032,776.61699)"
       spreadMethod="pad"
       x1="0"
       y1="0"
       x2="1"
       y2="0" /><linearGradient
       inkscape:collect="always"
       xlink:href="#linearGradient4077"
       id="linearGradient4495"
       gradientUnits="userSpaceOnUse"
       gradientTransform="matrix(44.981216,0,0,-44.981216,48.17366,784.07249)"
       spreadMethod="pad"
       x1="0"
       y1="0"
       x2="1"
       y2="0" /><linearGradient
       inkscape:collect="always"
       xlink:href="#linearGradient4117"
       id="linearGradient4497"
       gradientUnits="userSpaceOnUse"
       gradientTransform="matrix(-44.981216,0,0,-44.981216,85.436249,755.77269)"
       spreadMethod="pad"
       x1="0"
       y1="0"
       x2="1"
       y2="0" /><linearGradient
       inkscape:collect="always"
       xlink:href="#linearGradient4157"
       id="linearGradient4499"
       gradientUnits="userSpaceOnUse"
       gradientTransform="matrix(46.508591,-46.515167,46.515167,46.508591,47.70253,799.80417)"
       spreadMethod="pad"
       x1="0"
       y1="0"
       x2="1"
       y2="0" /><linearGradient
       inkscape:collect="always"
       xlink:href="#linearGradient4195"
       id="linearGradient4501"
       gradientUnits="userSpaceOnUse"
       gradientTransform="matrix(48.796219,0,0,-48.796219,44.358383,774.96901)"
       spreadMethod="pad"
       x1="0"
       y1="0"
       x2="1"
       y2="0" /><linearGradient
       inkscape:collect="always"
       xlink:href="#linearGradient4195"
       id="linearGradient4581"
       gradientUnits="userSpaceOnUse"
       gradientTransform="matrix(48.796219,0,0,-48.796219,44.358383,774.96901)"
       spreadMethod="pad"
       x1="0"
       y1="0"
       x2="1"
       y2="0" /><linearGradient
       inkscape:collect="always"
       xlink:href="#linearGradient4157"
       id="linearGradient4592"
       gradientUnits="userSpaceOnUse"
       gradientTransform="matrix(46.508591,-46.515167,46.515167,46.508591,47.70253,799.80417)"
       spreadMethod="pad"
       x1="0"
       y1="0"
       x2="1"
       y2="0" /><linearGradient
       inkscape:collect="always"
       xlink:href="#linearGradient4117"
       id="linearGradient4603"
       gradientUnits="userSpaceOnUse"
       gradientTransform="matrix(-44.981216,0,0,-44.981216,85.436249,755.77269)"
       spreadMethod="pad"
       x1="0"
       y1="0"
       x2="1"
       y2="0" /><linearGradient
       inkscape:collect="always"
       xlink:href="#linearGradient4077"
       id="linearGradient4614"
       gradientUnits="userSpaceOnUse"
       gradientTransform="matrix(44.981216,0,0,-44.981216,48.17366,784.07249)"
       spreadMethod="pad"
       x1="0"
       y1="0"
       x2="1"
       y2="0" /><linearGradient
       inkscape:collect="always"
       xlink:href="#linearGradient4039"
       id="linearGradient4625"
       gradientUnits="userSpaceOnUse"
       gradientTransform="matrix(48.947998,0,0,-48.947998,40.455032,776.61699)"
       spreadMethod="pad"
       x1="0"
       y1="0"
       x2="1"
       y2="0" /><linearGradient
       inkscape:collect="always"
       xlink:href="#linearGradient4001"
       id="linearGradient4636"
       gradientUnits="userSpaceOnUse"
       gradientTransform="matrix(44.981216,0,0,-44.981216,44.421814,774.21509)"
       spreadMethod="pad"
       x1="0"
       y1="0"
       x2="1"
       y2="0" /><linearGradient
       inkscape:collect="always"
       xlink:href="#linearGradient3963"
       id="linearGradient4647"
       gradientUnits="userSpaceOnUse"
       gradientTransform="matrix(48.733078,0,0,-48.733078,44.421814,772.81804)"
       spreadMethod="pad"
       x1="0"
       y1="0"
       x2="1"
       y2="0" /><linearGradient
       inkscape:collect="always"
       xlink:href="#linearGradient3963"
       id="linearGradient4670"
       gradientUnits="userSpaceOnUse"
       gradientTransform="matrix(48.733078,0,0,-48.733078,44.421814,772.81804)"
       spreadMethod="pad"
       x1="0"
       y1="0"
       x2="1"
       y2="0" /><linearGradient
       inkscape:collect="always"
       xlink:href="#linearGradient4001"
       id="linearGradient4679"
       gradientUnits="userSpaceOnUse"
       gradientTransform="matrix(44.981216,0,0,-44.981216,44.421814,774.21509)"
       spreadMethod="pad"
       x1="0"
       y1="0"
       x2="1"
       y2="0" /><linearGradient
       inkscape:collect="always"
       xlink:href="#linearGradient4039"
       id="linearGradient4688"
       gradientUnits="userSpaceOnUse"
       gradientTransform="matrix(48.947998,0,0,-48.947998,40.455032,776.61699)"
       spreadMethod="pad"
       x1="0"
       y1="0"
       x2="1"
       y2="0" /><linearGradient
       inkscape:collect="always"
       xlink:href="#linearGradient4077"
       id="linearGradient4697"
       gradientUnits="userSpaceOnUse"
       gradientTransform="matrix(44.981216,0,0,-44.981216,48.17366,784.07249)"
       spreadMethod="pad"
       x1="0"
       y1="0"
       x2="1"
       y2="0" /><linearGradient
       inkscape:collect="always"
       xlink:href="#linearGradient4117"
       id="linearGradient4706"
       gradientUnits="userSpaceOnUse"
       gradientTransform="matrix(-44.981216,0,0,-44.981216,85.436249,755.77269)"
       spreadMethod="pad"
       x1="0"
       y1="0"
       x2="1"
       y2="0" /><linearGradient
       inkscape:collect="always"
       xlink:href="#linearGradient4157"
       id="linearGradient4715"
       gradientUnits="userSpaceOnUse"
       gradientTransform="matrix(46.508591,-46.515167,46.515167,46.508591,47.70253,799.80417)"
       spreadMethod="pad"
       x1="0"
       y1="0"
       x2="1"
       y2="0" /><linearGradient
       inkscape:collect="always"
       xlink:href="#linearGradient4195"
       id="linearGradient4724"
       gradientUnits="userSpaceOnUse"
       gradientTransform="matrix(48.796219,0,0,-48.796219,44.358383,774.96901)"
       spreadMethod="pad"
       x1="0"
       y1="0"
       x2="1"
       y2="0" /><linearGradient
       inkscape:collect="always"
       xlink:href="#linearGradient4195"
       id="linearGradient4733"
       gradientUnits="userSpaceOnUse"
       gradientTransform="matrix(48.796219,0,0,-48.796219,44.358383,774.96901)"
       spreadMethod="pad"
       x1="0"
       y1="0"
       x2="1"
       y2="0" /><linearGradient
       inkscape:collect="always"
       xlink:href="#linearGradient4157"
       id="linearGradient4741"
       gradientUnits="userSpaceOnUse"
       gradientTransform="matrix(46.508591,-46.515167,46.515167,46.508591,47.70253,799.80417)"
       spreadMethod="pad"
       x1="0"
       y1="0"
       x2="1"
       y2="0" /><linearGradient
       inkscape:collect="always"
       xlink:href="#linearGradient4117"
       id="linearGradient4749"
       gradientUnits="userSpaceOnUse"
       gradientTransform="matrix(-44.981216,0,0,-44.981216,85.436249,755.77269)"
       spreadMethod="pad"
       x1="0"
       y1="0"
       x2="1"
       y2="0" /><linearGradient
       inkscape:collect="always"
       xlink:href="#linearGradient4077"
       id="linearGradient4757"
       gradientUnits="userSpaceOnUse"
       gradientTransform="matrix(44.981216,0,0,-44.981216,48.17366,784.07249)"
       spreadMethod="pad"
       x1="0"
       y1="0"
       x2="1"
       y2="0" /><linearGradient
       inkscape:collect="always"
       xlink:href="#linearGradient4039"
       id="linearGradient4765"
       gradientUnits="userSpaceOnUse"
       gradientTransform="matrix(48.947998,0,0,-48.947998,40.455032,776.61699)"
       spreadMethod="pad"
       x1="0"
       y1="0"
       x2="1"
       y2="0" /><linearGradient
       inkscape:collect="always"
       xlink:href="#linearGradient4001"
       id="linearGradient4773"
       gradientUnits="userSpaceOnUse"
       gradientTransform="matrix(44.981216,0,0,-44.981216,44.421814,774.21509)"
       spreadMethod="pad"
       x1="0"
       y1="0"
       x2="1"
       y2="0" /><linearGradient
       inkscape:collect="always"
       xlink:href="#linearGradient3963"
       id="linearGradient4781"
       gradientUnits="userSpaceOnUse"
       gradientTransform="matrix(48.733078,0,0,-48.733078,44.421814,772.81804)"
       spreadMethod="pad"
       x1="0"
       y1="0"
       x2="1"
       y2="0" /><linearGradient
       inkscape:collect="always"
       xlink:href="#linearGradient3963"
       id="linearGradient4796"
       gradientUnits="userSpaceOnUse"
       gradientTransform="matrix(48.733078,0,0,-48.733078,44.421814,772.81804)"
       spreadMethod="pad"
       x1="0"
       y1="0"
       x2="1"
       y2="0" /><linearGradient
       inkscape:collect="always"
       xlink:href="#linearGradient4001"
       id="linearGradient4803"
       gradientUnits="userSpaceOnUse"
       gradientTransform="matrix(44.981216,0,0,-44.981216,44.421814,774.21509)"
       spreadMethod="pad"
       x1="0"
       y1="0"
       x2="1"
       y2="0" /><linearGradient
       inkscape:collect="always"
       xlink:href="#linearGradient4039"
       id="linearGradient4810"
       gradientUnits="userSpaceOnUse"
       gradientTransform="matrix(48.947998,0,0,-48.947998,40.455032,776.61699)"
       spreadMethod="pad"
       x1="0"
       y1="0"
       x2="1"
       y2="0" /><linearGradient
       inkscape:collect="always"
       xlink:href="#linearGradient4077"
       id="linearGradient4817"
       gradientUnits="userSpaceOnUse"
       gradientTransform="matrix(44.981216,0,0,-44.981216,48.17366,784.07249)"
       spreadMethod="pad"
       x1="0"
       y1="0"
       x2="1"
       y2="0" /><linearGradient
       inkscape:collect="always"
       xlink:href="#linearGradient4117"
       id="linearGradient4824"
       gradientUnits="userSpaceOnUse"
       gradientTransform="matrix(-44.981216,0,0,-44.981216,85.436249,755.77269)"
       spreadMethod="pad"
       x1="0"
       y1="0"
       x2="1"
       y2="0" /><linearGradient
       inkscape:collect="always"
       xlink:href="#linearGradient4157"
       id="linearGradient4831"
       gradientUnits="userSpaceOnUse"
       gradientTransform="matrix(46.508591,-46.515167,46.515167,46.508591,47.70253,799.80417)"
       spreadMethod="pad"
       x1="0"
       y1="0"
       x2="1"
       y2="0" /><linearGradient
       inkscape:collect="always"
       xlink:href="#linearGradient4195"
       id="linearGradient4838"
       gradientUnits="userSpaceOnUse"
       gradientTransform="matrix(48.796219,0,0,-48.796219,44.358383,774.96901)"
       spreadMethod="pad"
       x1="0"
       y1="0"
       x2="1"
       y2="0" /><linearGradient
       inkscape:collect="always"
       xlink:href="#linearGradient4195"
       id="linearGradient4845"
       gradientUnits="userSpaceOnUse"
       gradientTransform="matrix(48.796219,0,0,-48.796219,44.358383,774.96901)"
       spreadMethod="pad"
       x1="0"
       y1="0"
       x2="1"
       y2="0" /><linearGradient
       inkscape:collect="always"
       xlink:href="#linearGradient4157"
       id="linearGradient4851"
       gradientUnits="userSpaceOnUse"
       gradientTransform="matrix(46.508591,-46.515167,46.515167,46.508591,47.70253,799.80417)"
       spreadMethod="pad"
       x1="0"
       y1="0"
       x2="1"
       y2="0" /><linearGradient
       inkscape:collect="always"
       xlink:href="#linearGradient4117"
       id="linearGradient4857"
       gradientUnits="userSpaceOnUse"
       gradientTransform="matrix(-44.981216,0,0,-44.981216,85.436249,755.77269)"
       spreadMethod="pad"
       x1="0"
       y1="0"
       x2="1"
       y2="0" /><linearGradient
       inkscape:collect="always"
       xlink:href="#linearGradient4077"
       id="linearGradient4863"
       gradientUnits="userSpaceOnUse"
       gradientTransform="matrix(44.981216,0,0,-44.981216,48.17366,784.07249)"
       spreadMethod="pad"
       x1="0"
       y1="0"
       x2="1"
       y2="0" /><linearGradient
       inkscape:collect="always"
       xlink:href="#linearGradient4039"
       id="linearGradient4869"
       gradientUnits="userSpaceOnUse"
       gradientTransform="matrix(48.947998,0,0,-48.947998,40.455032,776.61699)"
       spreadMethod="pad"
       x1="0"
       y1="0"
       x2="1"
       y2="0" /><linearGradient
       inkscape:collect="always"
       xlink:href="#linearGradient4001"
       id="linearGradient4875"
       gradientUnits="userSpaceOnUse"
       gradientTransform="matrix(44.981216,0,0,-44.981216,44.421814,774.21509)"
       spreadMethod="pad"
       x1="0"
       y1="0"
       x2="1"
       y2="0" /><linearGradient
       inkscape:collect="always"
       xlink:href="#linearGradient3963"
       id="linearGradient4881"
       gradientUnits="userSpaceOnUse"
       gradientTransform="matrix(48.733078,0,0,-48.733078,44.421814,772.81804)"
       spreadMethod="pad"
       x1="0"
       y1="0"
       x2="1"
       y2="0" /><linearGradient
       inkscape:collect="always"
       xlink:href="#linearGradient3963"
       id="linearGradient4890"
       gradientUnits="userSpaceOnUse"
       gradientTransform="matrix(48.733078,0,0,-48.733078,44.421814,772.81804)"
       spreadMethod="pad"
       x1="0"
       y1="0"
       x2="1"
       y2="0" /><linearGradient
       inkscape:collect="always"
       xlink:href="#linearGradient4001"
       id="linearGradient4895"
       gradientUnits="userSpaceOnUse"
       gradientTransform="matrix(44.981216,0,0,-44.981216,44.421814,774.21509)"
       spreadMethod="pad"
       x1="0"
       y1="0"
       x2="1"
       y2="0" /><linearGradient
       inkscape:collect="always"
       xlink:href="#linearGradient4039"
       id="linearGradient4900"
       gradientUnits="userSpaceOnUse"
       gradientTransform="matrix(48.947998,0,0,-48.947998,40.455032,776.61699)"
       spreadMethod="pad"
       x1="0"
       y1="0"
       x2="1"
       y2="0" /><linearGradient
       inkscape:collect="always"
       xlink:href="#linearGradient4077"
       id="linearGradient4905"
       gradientUnits="userSpaceOnUse"
       gradientTransform="matrix(44.981216,0,0,-44.981216,48.17366,784.07249)"
       spreadMethod="pad"
       x1="0"
       y1="0"
       x2="1"
       y2="0" /><linearGradient
       inkscape:collect="always"
       xlink:href="#linearGradient4117"
       id="linearGradient4910"
       gradientUnits="userSpaceOnUse"
       gradientTransform="matrix(-44.981216,0,0,-44.981216,85.436249,755.77269)"
       spreadMethod="pad"
       x1="0"
       y1="0"
       x2="1"
       y2="0" /><linearGradient
       inkscape:collect="always"
       xlink:href="#linearGradient4157"
       id="linearGradient4915"
       gradientUnits="userSpaceOnUse"
       gradientTransform="matrix(46.508591,-46.515167,46.515167,46.508591,47.70253,799.80417)"
       spreadMethod="pad"
       x1="0"
       y1="0"
       x2="1"
       y2="0" /><linearGradient
       inkscape:collect="always"
       xlink:href="#linearGradient4195"
       id="linearGradient4920"
       gradientUnits="userSpaceOnUse"
       gradientTransform="matrix(48.796219,0,0,-48.796219,44.358383,774.96901)"
       spreadMethod="pad"
       x1="0"
       y1="0"
       x2="1"
       y2="0" /><linearGradient
       inkscape:collect="always"
       xlink:href="#linearGradient4195"
       id="linearGradient4925"
       gradientUnits="userSpaceOnUse"
       gradientTransform="matrix(48.796219,0,0,-48.796219,44.358383,774.96901)"
       spreadMethod="pad"
       x1="0"
       y1="0"
       x2="1"
       y2="0" /><linearGradient
       inkscape:collect="always"
       xlink:href="#linearGradient4157"
       id="linearGradient4929"
       gradientUnits="userSpaceOnUse"
       gradientTransform="matrix(46.508591,-46.515167,46.515167,46.508591,47.70253,799.80417)"
       spreadMethod="pad"
       x1="0"
       y1="0"
       x2="1"
       y2="0" /><linearGradient
       inkscape:collect="always"
       xlink:href="#linearGradient4117"
       id="linearGradient4933"
       gradientUnits="userSpaceOnUse"
       gradientTransform="matrix(-44.981216,0,0,-44.981216,85.436249,755.77269)"
       spreadMethod="pad"
       x1="0"
       y1="0"
       x2="1"
       y2="0" /><linearGradient
       inkscape:collect="always"
       xlink:href="#linearGradient4077"
       id="linearGradient4937"
       gradientUnits="userSpaceOnUse"
       gradientTransform="matrix(44.981216,0,0,-44.981216,48.17366,784.07249)"
       spreadMethod="pad"
       x1="0"
       y1="0"
       x2="1"
       y2="0" /><linearGradient
       inkscape:collect="always"
       xlink:href="#linearGradient4039"
       id="linearGradient4941"
       gradientUnits="userSpaceOnUse"
       gradientTransform="matrix(48.947998,0,0,-48.947998,40.455032,776.61699)"
       spreadMethod="pad"
       x1="0"
       y1="0"
       x2="1"
       y2="0" /><linearGradient
       inkscape:collect="always"
       xlink:href="#linearGradient4001"
       id="linearGradient4945"
       gradientUnits="userSpaceOnUse"
       gradientTransform="matrix(44.981216,0,0,-44.981216,44.421814,774.21509)"
       spreadMethod="pad"
       x1="0"
       y1="0"
       x2="1"
       y2="0" /><linearGradient
       inkscape:collect="always"
       xlink:href="#linearGradient3963"
       id="linearGradient4949"
       gradientUnits="userSpaceOnUse"
       gradientTransform="matrix(48.733078,0,0,-48.733078,44.421814,772.81804)"
       spreadMethod="pad"
       x1="0"
       y1="0"
       x2="1"
       y2="0" /><linearGradient
       inkscape:collect="always"
       xlink:href="#linearGradient3963"
       id="linearGradient4953"
       gradientUnits="userSpaceOnUse"
       gradientTransform="matrix(48.733078,0,0,-48.733078,44.421814,772.81804)"
       spreadMethod="pad"
       x1="0"
       y1="0"
       x2="1"
       y2="0" /><linearGradient
       inkscape:collect="always"
       xlink:href="#linearGradient3963"
       id="linearGradient4956"
       gradientUnits="userSpaceOnUse"
       gradientTransform="matrix(250.31246,0,0,-250.31246,55.313572,685.79355)"
       spreadMethod="pad"
       x1="0"
       y1="0"
       x2="1"
       y2="0" /><linearGradient
       inkscape:collect="always"
       xlink:href="#linearGradient4001"
       id="linearGradient4958"
       gradientUnits="userSpaceOnUse"
       gradientTransform="matrix(44.981216,0,0,-44.981216,44.421814,774.21509)"
       spreadMethod="pad"
       x1="0"
       y1="0"
       x2="1"
       y2="0" /><linearGradient
       inkscape:collect="always"
       xlink:href="#linearGradient4001"
       id="linearGradient4961"
       gradientUnits="userSpaceOnUse"
       gradientTransform="matrix(231.04141,0,0,-231.04141,55.313572,692.96935)"
       spreadMethod="pad"
       x1="0"
       y1="0"
       x2="1"
       y2="0" /><linearGradient
       inkscape:collect="always"
       xlink:href="#linearGradient4039"
       id="linearGradient4963"
       gradientUnits="userSpaceOnUse"
       gradientTransform="matrix(48.947998,0,0,-48.947998,40.455032,776.61699)"
       spreadMethod="pad"
       x1="0"
       y1="0"
       x2="1"
       y2="0" /><linearGradient
       inkscape:collect="always"
       xlink:href="#linearGradient4039"
       id="linearGradient4966"
       gradientUnits="userSpaceOnUse"
       gradientTransform="matrix(251.41637,0,0,-251.41637,34.938603,705.30648)"
       spreadMethod="pad"
       x1="0"
       y1="0"
       x2="1"
       y2="0" /><linearGradient
       inkscape:collect="always"
       xlink:href="#linearGradient4077"
       id="linearGradient4968"
       gradientUnits="userSpaceOnUse"
       gradientTransform="matrix(44.981216,0,0,-44.981216,48.17366,784.07249)"
       spreadMethod="pad"
       x1="0"
       y1="0"
       x2="1"
       y2="0" /><linearGradient
       inkscape:collect="always"
       xlink:href="#linearGradient4077"
       id="linearGradient4971"
       gradientUnits="userSpaceOnUse"
       gradientTransform="matrix(231.04141,0,0,-231.04141,74.584544,743.60089)"
       spreadMethod="pad"
       x1="0"
       y1="0"
       x2="1"
       y2="0" /><linearGradient
       inkscape:collect="always"
       xlink:href="#linearGradient4117"
       id="linearGradient4973"
       gradientUnits="userSpaceOnUse"
       gradientTransform="matrix(-44.981216,0,0,-44.981216,85.436249,755.77269)"
       spreadMethod="pad"
       x1="0"
       y1="0"
       x2="1"
       y2="0" /><linearGradient
       inkscape:collect="always"
       xlink:href="#linearGradient4117"
       id="linearGradient4976"
       gradientUnits="userSpaceOnUse"
       gradientTransform="matrix(-231.04141,0,0,-231.04141,265.98001,598.24185)"
       spreadMethod="pad"
       x1="0"
       y1="0"
       x2="1"
       y2="0" /><linearGradient
       inkscape:collect="always"
       xlink:href="#linearGradient4157"
       id="linearGradient4978"
       gradientUnits="userSpaceOnUse"
       gradientTransform="matrix(46.508591,-46.515167,46.515167,46.508591,47.70253,799.80417)"
       spreadMethod="pad"
       x1="0"
       y1="0"
       x2="1"
       y2="0" /><linearGradient
       inkscape:collect="always"
       xlink:href="#linearGradient4157"
       id="linearGradient4981"
       gradientUnits="userSpaceOnUse"
       gradientTransform="matrix(238.8866,-238.92038,238.92038,238.8866,72.164633,824.40503)"
       spreadMethod="pad"
       x1="0"
       y1="0"
       x2="1"
       y2="0" /><linearGradient
       inkscape:collect="always"
       xlink:href="#linearGradient4195"
       id="linearGradient4983"
       gradientUnits="userSpaceOnUse"
       gradientTransform="matrix(48.796219,0,0,-48.796219,44.358383,774.96901)"
       spreadMethod="pad"
       x1="0"
       y1="0"
       x2="1"
       y2="0" /><linearGradient
       inkscape:collect="always"
       xlink:href="#linearGradient4195"
       id="linearGradient4986"
       gradientUnits="userSpaceOnUse"
       gradientTransform="matrix(250.63677,0,0,-250.63677,54.987764,696.84179)"
       spreadMethod="pad"
       x1="0"
       y1="0"
       x2="1"
       y2="0" /></defs><sodipodi:namedview
     inkscape:window-height="750"
     inkscape:window-width="1280"
     inkscape:pageshadow="2"
     inkscape:pageopacity="0.0"
     guidetolerance="10.0"
     gridtolerance="10.0"
     objecttolerance="10.0"
     borderopacity="1.0"
     bordercolor="#666666"
     pagecolor="#ffffff"
     id="base"
     showgrid="false"
     inkscape:zoom="0.45421609"
     inkscape:cx="372.04749"
     inkscape:cy="526.18127"
     inkscape:window-x="-8"
     inkscape:window-y="-8"
     inkscape:current-layer="g3539" /><g
     id="g3539"
     inkscape:groupmode="layer"
     inkscape:label="EDA_at_a_glace_fact_sheet.sflb"
     transform="matrix(1.25,0,0,-1.25,-11.642877,1072.9235)"><path
       d="M 41.768819,647.39928 C 41.799638,647.40441 41.830456,647.40956 41.861275,647.40956 C 42.482778,647.48147 43.104283,647.55337 43.725787,647.61501 L 43.751468,647.61501 C 43.088874,647.55337 42.431415,647.47633 41.768819,647.39928 M 35.240458,646.49014 C 35.255866,646.49014 35.276412,646.49529 35.286685,646.49529 C 35.338049,646.50555 35.394549,646.50555 35.445914,646.51582 C 35.374004,646.50555 35.307231,646.50042 35.240458,646.49014 M 322.19557,812.71938 C 316.67395,809.24716 311.15231,806.23724 305.62555,803.58685 L 305.62555,851.29372 C 228.61041,809.29339 151.60041,842.69539 74.585262,823.69586 L 74.585262,808.45617 C 61.369312,805.60033 48.15336,801.21384 34.93741,794.62898 L 34.93741,778.73696 C 28.768597,775.87599 22.594648,772.55275 16.425834,768.67476 C 16.425834,726.37652 16.430971,684.07316 16.430971,641.76979 C 22.599784,643.85003 28.768597,645.37555 34.93741,646.43363 L 34.93741,618.16292 C 111.95255,626.56606 188.96769,560.65067 265.98284,548.18976 L 265.98284,569.34145 C 265.7517,569.37227 265.52056,569.41336 265.28943,569.44417 C 278.73652,567.63103 292.17847,567.42044 305.62555,569.52122 L 305.62555,592.33709 C 311.15231,593.37466 316.67908,594.7769 322.20584,596.6414 C 322.20071,668.66397 322.20071,740.69681 322.19557,812.71938"
       style="opacity:0.69999701;fill:#ffffff;fill-opacity:1;fill-rule:nonzero;stroke:none"
       id="path3945" /><path
       d="M 169.31174,790.7094 C 131.31267,794.43842 93.308459,798.16745 55.314526,786.54891 L 55.314526,786.54891 L 55.314526,633.38155 C 138.74503,631.94336 222.1858,556.48454 305.62144,569.52073 L 305.62144,569.52073 L 305.62144,803.57094 C 260.18487,781.78234 214.7483,786.24587 169.31174,790.7094"
       style="fill:url(#linearGradient4956);stroke:none"
       id="path3983" /><path
       d="M 169.31174,790.7094 C 131.31267,794.43842 93.313595,798.16745 55.314526,786.54891 L 55.314526,786.54891 L 55.314526,648.29764 C 93.308459,648.83697 131.30239,634.0236 169.29633,619.21023 L 169.29633,619.21023 C 208.31753,604.00136 247.3336,588.79248 286.35482,590.19986 L 286.35482,590.19986 L 286.35482,795.83039 C 247.33874,783.05103 208.32266,786.87765 169.31174,790.7094"
       style="fill:url(#linearGradient4961);stroke:none"
       id="path4021" /><path
       d="M 169.322,811.28581 C 124.52235,814.11082 79.727823,816.94612 34.938439,794.62848 L 34.938439,794.62848 L 34.938439,646.44855 C 79.727823,654.13259 124.52235,636.67397 169.31687,619.21023 L 169.31687,619.21023 C 208.32781,604.00649 247.33874,588.79761 286.35482,590.19986 L 286.35482,590.19986 L 286.35482,820.5005 C 247.34389,806.34973 208.33294,808.82033 169.322,811.28581"
       style="fill:url(#linearGradient4966);stroke:none"
       id="path4059" /><path
       d="M 169.31174,829.44811 C 137.73315,830.46511 106.15459,831.48726 74.581153,823.69534 L 74.581153,823.69534 L 74.581153,679.82485 C 151.5963,676.36292 228.61144,620.49946 305.62144,640.04345 L 305.62144,640.04345 L 305.62144,851.29321 C 260.18487,826.5101 214.7483,827.9791 169.31174,829.44811"
       style="fill:url(#linearGradient4971);stroke:none"
       id="path4099" /><path
       d="M 34.938439,646.4434 L 34.938439,618.15726 C 111.94844,626.56555 188.96872,560.64502 265.97873,548.1944 L 265.97873,548.1944 L 265.97873,569.34094 C 195.75391,578.52996 125.53422,632.16936 55.314526,633.38155 L 55.314526,633.38155 L 55.314526,648.29764 C 48.519073,648.20005 41.728755,647.60937 34.938439,646.4434"
       style="fill:url(#linearGradient4976);stroke:none"
       id="path4139" /><path
       d="M 169.31687,790.69913 C 118.35353,795.70197 67.38506,800.70483 16.421726,768.67426 L 16.421726,768.67426 C 16.426862,726.37602 16.426862,684.07265 16.426862,641.77442 L 16.426862,641.77442 C 67.390197,658.92998 118.35353,639.06754 169.31174,619.20509 L 169.31174,619.20509 C 220.28021,599.3375 271.23841,579.46992 322.20688,596.64089 L 322.20688,596.64089 C 322.20173,668.66347 322.20173,740.6963 322.1966,812.71886 L 322.1966,812.71886 C 271.23326,780.69342 220.27507,785.69628 169.31687,790.69913"
       style="fill:url(#linearGradient4981);stroke:none"
       id="path4177" /><path
       d="M 305.21052,803.38089 C 305.34922,803.44253 305.48789,803.49902 305.62144,803.5658 L 305.62144,803.5658 L 305.62144,803.57094 C 305.48789,803.51443 305.34922,803.44253 305.21052,803.38089 M 285.82063,795.66088 C 284.68549,795.29107 283.55035,794.93666 282.4152,794.59766 L 282.4152,794.59766 C 282.20975,794.53087 281.99916,794.47437 281.79883,794.41274 L 281.79883,794.41274 C 278.66049,793.48305 275.52215,792.66123 272.38381,791.93186 L 272.38381,791.93186 C 272.07049,791.86509 271.76745,791.78804 271.45927,791.72126 L 271.45927,791.72126 C 269.89781,791.36685 268.34147,791.04326 266.78515,790.72995 L 266.78515,790.72995 C 266.63105,790.70426 266.47182,790.67344 266.32286,790.63749 L 266.32286,790.63749 C 263.81117,790.14954 261.29946,789.71807 258.79805,789.34312 L 258.79805,789.34312 C 258.70045,789.32771 258.60286,789.31743 258.5104,789.29689 L 258.5104,789.29689 C 258.29468,789.26608 258.09436,789.24039 257.87862,789.20444 L 257.87862,789.20444 C 257.62181,789.17362 257.35985,789.13252 257.09277,789.09657 L 257.09277,789.09657 C 252.51109,788.44938 247.93457,787.9717 243.3529,787.64297 L 243.3529,787.64297 C 243.15257,787.62242 242.95227,787.60701 242.75194,787.59675 L 242.75194,787.59675 C 238.09323,787.27315 233.43964,787.09337 228.78094,787.03688 L 228.78094,787.03688 L 228.43167,787.03688 C 201.01357,786.7441 173.59035,790.59126 146.16199,792.83074 L 146.16199,792.83074 C 146.14657,792.83074 146.1363,792.83587 146.12089,792.83587 L 146.12089,792.83587 C 146.12604,792.83587 146.13117,792.83587 146.1363,792.83587 L 146.1363,792.83587 L 146.07467,792.84614 C 146.07467,792.841 146.07981,792.841 146.07981,792.841 L 146.07981,792.841 C 145.97194,792.85127 145.8538,792.8564 145.74081,792.86669 L 145.74081,792.86669 C 145.6689,792.87182 145.59698,792.87696 145.52508,792.88209 L 145.52508,792.88209 C 145.56102,792.88209 145.59698,792.88209 145.63293,792.87696 L 145.63293,792.87696 C 145.54048,792.88722 145.45317,792.89237 145.36585,792.89237 L 145.36585,792.89237 C 145.37098,792.89237 145.38125,792.89237 145.3864,792.89237 L 145.3864,792.89237 C 145.3453,792.8975 145.29908,792.90265 145.25798,792.90265 L 145.25798,792.90265 L 145.29393,792.90265 C 145.08848,792.92319 144.88816,792.93859 144.68784,792.94887 L 144.68784,792.94887 C 142.53056,793.12351 140.37841,793.2776 138.23139,793.42142 L 138.23139,793.42142 C 137.28116,793.49333 136.33092,793.55496 135.38069,793.6166 L 135.38069,793.6166 C 134.45101,793.6731 133.52132,793.72446 132.59677,793.77583 L 132.59677,793.77583 L 131.85713,793.82206 C 131.1329,793.86315 130.40352,793.89396 129.67929,793.92991 L 129.67929,793.92991 L 127.84046,794.0121 C 127.40901,794.03779 126.96727,794.05833 126.53582,794.07887 L 126.53582,794.07887 C 125.60098,794.11484 124.66616,794.14052 123.73648,794.17647 L 123.73648,794.17647 C 122.91979,794.20216 122.09797,794.23297 121.28128,794.25351 L 121.28128,794.25351 C 120.79332,794.27406 120.30023,794.27919 119.80713,794.28433 L 119.80713,794.28433 C 119.38081,794.29461 118.95963,794.30488 118.53845,794.31001 L 118.53845,794.31001 C 118.0248,794.32543 117.51116,794.33056 116.99239,794.3357 L 116.99239,794.3357 C 116.29897,794.3511 115.60556,794.3511 114.91215,794.35624 L 114.91215,794.35624 C 114.02869,794.36137 113.15036,794.36652 112.27204,794.36652 L 112.27204,794.36652 C 111.93817,794.36137 111.60431,794.36137 111.27044,794.35624 L 111.27044,794.35624 C 110.39725,794.3511 109.52406,794.3357 108.64574,794.32543 L 108.64574,794.32543 C 108.01396,794.31001 107.39246,794.30488 106.76068,794.29461 L 106.76068,794.29461 C 105.944,794.27406 105.12731,794.2381 104.30549,794.21242 L 104.30549,794.21242 C 104.04866,794.20729 103.79698,794.20216 103.54016,794.19187 L 103.54016,794.19187 C 102.6567,794.15592 101.76811,794.11484 100.88464,794.07887 L 100.88464,794.07887 C 100.67919,794.06346 100.47373,794.0532 100.27855,794.04805 L 100.27855,794.04805 C 99.497818,794.00696 98.727357,793.97101 97.956897,793.92991 L 97.956897,793.92991 C 97.258347,793.88369 96.559798,793.83233 95.861249,793.78097 L 95.861249,793.78097 C 95.090788,793.72446 94.320328,793.68338 93.549868,793.6166 L 93.549868,793.6166 C 93.123547,793.58578 92.702363,793.54469 92.286315,793.50359 L 92.286315,793.50359 C 91.526128,793.4471 90.760805,793.36492 90.005754,793.29301 L 90.005754,793.29301 C 89.153114,793.21596 88.310743,793.12864 87.463238,793.03105 L 87.463238,793.03105 C 86.872552,792.97454 86.281867,792.89237 85.691181,792.82559 L 85.691181,792.82559 C 85.562772,792.80505 85.434362,792.79992 85.300815,792.77937 L 85.300815,792.77937 C 84.740947,792.70745 84.170807,792.65095 83.600668,792.57391 L 83.600668,792.57391 C 82.383342,792.41468 81.155743,792.24005 79.93328,792.05 L 79.93328,792.05 C 79.358003,791.96781 78.787863,791.88564 78.212586,791.79317 L 78.212586,791.79317 C 78.084177,791.77264 77.95063,791.74695 77.827357,791.7264 L 77.827357,791.7264 C 77.108261,791.61341 76.384029,791.47986 75.664933,791.35659 L 75.664933,791.35659 C 75.305386,791.29494 74.945838,791.23331 74.581153,791.17167 L 74.581153,791.17167 C 73.769603,791.02785 72.952915,790.85836 72.131092,790.70426 L 72.131092,790.70426 C 71.802362,790.63749 71.463359,790.57071 71.124357,790.50394 L 71.124357,790.50394 C 70.769947,790.43204 70.415535,790.36012 70.050851,790.28821 L 70.050851,790.28821 C 69.783758,790.22658 69.516666,790.18549 69.25471,790.12385 L 69.25471,790.12385 C 67.410743,789.73349 65.571912,789.30717 63.727945,788.85516 L 63.727945,788.85516 C 63.614946,788.82947 63.496808,788.78838 63.378671,788.76271 L 63.378671,788.76271 C 62.916395,788.63943 62.448983,788.51616 61.98157,788.39802 L 61.98157,788.39802 C 61.760706,788.33638 61.539841,788.27475 61.313838,788.22338 L 61.313838,788.22338 C 59.731828,787.80221 58.149818,787.35533 56.567808,786.88791 L 56.567808,786.88791 L 56.403443,786.83656 C 56.03876,786.72869 55.674074,786.62597 55.30939,786.51809 L 55.30939,786.51809 L 55.30939,648.28224 C 55.206663,648.27711 55.093663,648.27195 54.985797,648.27195 L 54.985797,648.27195 L 55.30939,648.27195 C 55.781938,648.27711 56.254487,648.27195 56.727037,648.27711 L 56.727037,648.27711 L 57.338267,648.27711 C 57.913545,648.27711 58.488821,648.28737 59.064097,648.27711 L 59.064097,648.27711 C 59.783192,648.27195 60.497151,648.24114 61.221384,648.22573 L 61.221384,648.22573 C 61.955889,648.20519 62.700666,648.18463 63.440307,648.15382 L 63.440307,648.15382 C 64.09263,648.12815 64.744952,648.09732 65.402411,648.06137 L 65.402411,648.06137 C 66.100961,648.02027 66.799511,647.97918 67.503198,647.92782 L 67.503198,647.92782 C 68.068202,647.88673 68.638342,647.86105 69.213618,647.81482 L 69.213618,647.81482 C 69.886486,647.76346 70.554217,647.69668 71.227086,647.62991 L 71.227086,647.62991 C 72.09,647.55287 72.958052,647.4861 73.826103,647.39364 L 73.826103,647.39364 C 74.365425,647.33714 74.904747,647.26009 75.444069,647.19845 L 75.444069,647.19845 C 75.500568,647.19332 75.546796,647.18304 75.603297,647.17791 L 75.603297,647.17791 C 76.363483,647.09573 77.113397,647.00841 77.863311,646.90569 L 77.863311,646.90569 C 78.844363,646.77727 79.815142,646.63859 80.791057,646.49477 L 80.791057,646.49477 C 81.469061,646.39718 82.14193,646.30472 82.814798,646.19686 L 82.814798,646.19686 L 83.595531,646.07873 C 84.304354,645.96572 85.00804,645.83731 85.716863,645.71404 L 85.716863,645.71404 C 86.810916,645.51886 87.899831,645.33394 88.993886,645.12335 L 88.993886,645.12335 C 89.32775,645.06172 89.661617,644.98981 90.005754,644.92817 L 90.005754,644.92817 C 90.421803,644.84085 90.837852,644.7638 91.259036,644.68163 L 91.259036,644.68163 C 91.603175,644.60971 91.942177,644.55321 92.286315,644.47617 L 92.286315,644.47617 C 93.791279,644.16798 95.306517,643.84439 96.811481,643.50025 L 96.811481,643.50025 C 97.196712,643.40779 97.587077,643.32561 97.972307,643.24342 L 97.972307,643.24342 C 98.357537,643.15097 98.747903,643.05338 99.127997,642.96093 L 99.127997,642.96093 C 99.49268,642.87874 99.857365,642.78628 100.21691,642.69897 L 100.21691,642.69897 C 101.55751,642.37538 102.90325,642.04152 104.24385,641.6871 L 104.24385,641.6871 C 104.29521,641.68196 104.34658,641.6717 104.39794,641.65114 L 104.39794,641.65114 C 105.13758,641.45597 105.88749,641.27105 106.63227,641.07073 L 106.63227,641.07073 C 106.66309,641.06559 106.68877,641.05533 106.71445,641.05018 L 106.71445,641.05018 C 108.59438,640.54682 110.45889,640.02291 112.33881,639.48358 L 112.33881,639.48358 C 112.40558,639.46304 112.4775,639.44249 112.54426,639.41682 L 112.54426,639.41682 C 113.27877,639.21136 114.01328,638.9905 114.74778,638.77476 L 114.74778,638.77476 L 115.13814,638.6515 C 116.32979,638.30221 117.52143,637.93753 118.70795,637.57284 L 118.70795,637.57284 C 119.04181,637.46498 119.37568,637.36225 119.70954,637.25952 L 119.70954,637.25952 C 120.19236,637.10544 120.67005,636.96161 121.1426,636.81266 L 121.1426,636.81266 C 121.81546,636.59692 122.4832,636.37606 123.15606,636.16034 L 123.15606,636.16034 C 124.32203,635.78025 125.49826,635.40015 126.66936,635.00979 L 126.66936,635.00979 C 126.98268,634.90706 127.29087,634.79919 127.60418,634.69133 L 127.60418,634.69133 C 128.18459,634.50128 128.75988,634.3061 129.34029,634.10578 L 129.34029,634.10578 C 129.76661,633.96196 130.18779,633.82327 130.60898,633.67946 L 130.60898,633.67946 C 131.39999,633.41236 132.19613,633.12987 132.99227,632.84736 L 132.99227,632.84736 C 133.88599,632.53917 134.77973,632.22586 135.6786,631.91254 L 135.6786,631.91254 C 135.7762,631.87658 135.87378,631.84063 135.97138,631.8098 L 135.97138,631.8098 C 137.13734,631.38863 138.3033,630.97258 139.46926,630.54626 L 139.46926,630.54626 C 139.96237,630.36649 140.45545,630.19184 140.95881,630.01207 L 140.95881,630.01207 C 141.40568,629.85284 141.85256,629.6782 142.29941,629.51384 L 142.29941,629.51384 C 142.90551,629.29298 143.5116,629.06697 144.1177,628.8461 L 144.1177,628.8461 C 144.13825,628.84097 144.15366,628.83069 144.16906,628.82556 L 144.16906,628.82556 C 144.65189,628.65093 145.1347,628.46602 145.61753,628.29138 L 145.61753,628.29138 C 146.11063,628.10133 146.614,627.92156 147.11222,627.73152 L 147.11222,627.73152 C 147.92378,627.4336 148.73018,627.12542 149.54688,626.81724 L 149.54688,626.81724 L 149.77287,626.73505 C 150.05538,626.62718 150.33274,626.52446 150.61011,626.42173 L 150.61011,626.42173 C 150.62551,626.41145 150.63065,626.40632 150.64093,626.40632 L 150.64093,626.40632 C 154.11314,625.08626 157.58021,623.74566 161.04726,622.40506 L 161.04726,622.40506 C 164.03151,621.24938 167.02089,620.09369 170.00515,618.92258 L 170.00515,618.92258 C 171.92102,618.17781 173.8369,617.43817 175.75278,616.69339 L 175.75278,616.69339 C 177.07797,616.17461 178.40829,615.66097 179.73862,615.15247 L 179.73862,615.15247 C 181.146,614.60801 182.56364,614.06356 183.971,613.52423 L 183.971,613.52423 C 184.04805,613.49341 184.13024,613.46773 184.20728,613.44205 L 184.20728,613.44205 C 185.40921,612.97464 186.61111,612.51236 187.81303,612.05522 L 187.81303,612.05522 C 189.41559,611.44913 191.01815,610.85844 192.61557,610.26262 L 192.61557,610.26262 C 192.6618,610.24722 192.71315,610.2318 192.75938,610.21126 L 192.75938,610.21126 C 194.01266,609.74384 195.26594,609.28157 196.51923,608.8193 L 196.51923,608.8193 C 197.50028,608.45974 198.4916,608.07966 199.47266,607.72524 L 199.47266,607.72524 C 199.65243,607.6636 199.82707,607.60197 200.00684,607.53006 L 200.00684,607.53006 C 202.53396,606.62605 205.05078,605.74259 207.57789,604.8694 L 207.57789,604.8694 C 208.00422,604.72046 208.4408,604.57663 208.87227,604.42768 L 208.87227,604.42768 C 210.49537,603.87808 212.11847,603.32335 213.7467,602.7943 L 213.7467,602.7943 C 214.04975,602.69157 214.35279,602.58885 214.65071,602.49124 L 214.65071,602.49124 C 214.97431,602.39366 215.28763,602.28579 215.60607,602.18306 L 215.60607,602.18306 L 215.66772,602.16253 C 217.54764,601.55643 219.42757,600.96061 221.30747,600.38533 L 221.30747,600.38533 C 221.33316,600.38019 221.36398,600.36479 221.38966,600.35965 L 221.38966,600.35965 C 222.04199,600.16447 222.68917,599.96928 223.34149,599.7741 L 223.34149,599.7741 C 223.4699,599.74328 223.59317,599.70219 223.71646,599.66109 L 223.71646,599.66109 C 225.18546,599.22964 226.64419,598.80331 228.10293,598.39241 L 228.10293,598.39241 C 228.46248,598.28967 228.8169,598.19209 229.17131,598.09449 L 229.17131,598.09449 C 230.02396,597.85822 230.87658,597.63222 231.72409,597.41136 L 231.72409,597.41136 C 232.17096,597.29322 232.61269,597.17508 233.05442,597.05695 L 233.05442,597.05695 C 233.95329,596.82067 234.84703,596.56385 235.74075,596.33784 L 235.74075,596.33784 C 235.77158,596.33271 235.8024,596.32757 235.82807,596.31731 L 235.82807,596.31731 C 236.82454,596.06048 237.81586,595.82934 238.80718,595.59307 L 238.80718,595.59307 C 239.03832,595.54684 239.26432,595.4852 239.48519,595.42357 L 239.48519,595.42357 C 240.48679,595.19243 241.48838,594.96643 242.48998,594.74043 L 242.48998,594.74043 C 242.87521,594.65311 243.26558,594.57092 243.65081,594.48874 L 243.65081,594.48874 C 244.71404,594.25247 245.77727,594.02647 246.84051,593.81073 L 246.84051,593.81073 C 247.04597,593.76965 247.24628,593.73369 247.45174,593.6926 L 247.45174,593.6926 C 247.77021,593.63097 248.08352,593.5796 248.39684,593.51797 L 248.39684,593.51797 C 249.91721,593.22005 251.42732,592.95296 252.9477,592.69101 L 252.9477,592.69101 C 253.96983,592.51123 254.99198,592.33659 256.01412,592.17737 L 256.01412,592.17737 C 256.30176,592.13115 256.59453,592.07978 256.88731,592.03355 L 256.88731,592.03355 C 257.29308,591.96677 257.69885,591.91028 258.0995,591.85377 L 258.0995,591.85377 C 259.48632,591.65345 260.86801,591.46855 262.24458,591.29904 L 262.24458,591.29904 C 262.5733,591.26309 262.90202,591.222 263.22562,591.1809 L 263.22562,591.1809 C 263.48244,591.15522 263.73926,591.14495 263.99094,591.10899 L 263.99094,591.10899 C 265.44455,590.95491 266.89301,590.81621 268.34661,590.69295 L 268.34661,590.69295 C 269.04003,590.64157 269.73344,590.55427 270.42685,590.5029 L 270.42685,590.5029 C 270.63744,590.48235 270.85317,590.47721 271.0689,590.46181 L 271.0689,590.46181 C 271.1408,590.45667 271.22299,590.45667 271.30004,590.4464 L 271.30004,590.4464 C 271.71095,590.42071 272.127,590.40018 272.54304,590.36936 L 272.54304,590.36936 C 274.41783,590.26149 276.28234,590.18443 278.15713,590.13821 L 278.15713,590.13821 L 278.62454,590.1228 C 280.53528,590.09198 282.44088,590.13308 284.35162,590.16903 L 284.35162,590.16903 C 284.82416,590.18443 285.29158,590.16903 285.76928,590.18443 L 285.76928,590.18443 C 285.96445,590.18958 286.15963,590.19986 286.34969,590.20499 L 286.34969,590.20499 L 286.34969,795.83553 C 286.17505,795.77388 285.99527,795.71738 285.82063,795.66088 M 145.39666,792.89237 C 145.41722,792.89237 145.44289,792.88722 145.46857,792.88722 L 145.46857,792.88722 C 145.44289,792.88722 145.41722,792.88722 145.39666,792.89237 M 145.36585,792.89237 C 145.3453,792.8975 145.31962,792.90265 145.29393,792.90265 L 145.29393,792.90265 C 145.31448,792.8975 145.3453,792.8975 145.36585,792.89237 M 145.74081,792.86669 C 145.75622,792.86669 145.76648,792.86669 145.77676,792.86669 L 145.77676,792.86669 C 145.7254,792.87182 145.67916,792.87182 145.63293,792.87696 L 145.63293,792.87696 C 145.67403,792.87182 145.70485,792.87182 145.74081,792.86669 M 145.83839,792.86156 C 145.81786,792.86669 145.7973,792.86669 145.77676,792.86669 L 145.77676,792.86669 C 145.7973,792.86156 145.81786,792.86156 145.83839,792.86156 M 145.88462,792.86156 C 145.87436,792.86156 145.86408,792.86156 145.85894,792.86156 L 145.85894,792.86156 C 145.84867,792.86156 145.84354,792.86156 145.83839,792.86156 L 145.83839,792.86156 C 145.8538,792.86156 145.86921,792.86156 145.88462,792.86156 M 145.9668,792.85127 C 145.94112,792.8564 145.91031,792.8564 145.88462,792.86156 L 145.88462,792.86156 C 145.91031,792.8564 145.94112,792.85127 145.9668,792.85127 M 146.07467,792.84614 C 146.03872,792.84614 146.00276,792.84614 145.9668,792.85127 L 145.9668,792.85127 C 146.00276,792.84614 146.03872,792.84614 146.07467,792.84614 M 146.16199,792.83074 C 146.15171,792.83074 146.14144,792.83587 146.1363,792.83587 L 146.1363,792.83587 L 146.16199,792.83074 z"
       style="opacity:1;fill:url(#linearGradient4986);stroke:none"
       id="path4217" /><path
       id="path4221"
       style="fill:#fff200;fill-opacity:1;fill-rule:nonzero;stroke:none"
       d="M 186.25,663.90767 L 191.04739,660.30706 L 189.20343,654.6416 L 193.92378,658.1395 L 198.66467,654.67756 L 196.79502,660.31732 L 201.53592,663.89738 L 195.64447,663.88198 L 193.88269,669.38821 L 192.1209,663.87172 L 186.25,663.90767 z M 207.04214,683.74444 L 211.84467,680.1284 L 209.99556,674.4835 L 214.71078,677.97625 L 219.45682,674.51433 L 217.59744,680.15409 L 222.32806,683.73415 L 216.43661,683.71362 L 214.66455,689.21983 L 212.91304,683.69821 L 207.04214,683.74444 z M 225.27636,699.7854 L 223.41698,705.42517 L 228.15273,709.00524 L 222.25615,708.98469 L 220.4995,714.48576 L 218.73771,708.96414 L 212.85654,709.01551 L 217.65908,705.40976 L 215.82024,699.74431 L 220.54058,703.24734 L 225.27636,699.7854 z M 210.79684,734.81564 L 204.92594,734.85159 L 209.72334,731.25611 L 207.88964,725.60093 L 212.60486,729.09882 L 217.34575,725.62148 L 215.48124,731.27151 L 220.21699,734.85159 L 214.32555,734.83104 L 212.55863,740.33726 L 210.79684,734.81564 z M 198.59276,748.79177 L 203.33366,752.38211 L 197.43194,752.36156 L 195.66502,757.85751 L 193.91351,752.34103 L 188.03747,752.39751 L 192.85028,748.7815 L 191.00117,743.12632 L 195.71638,746.62421 L 200.46241,743.15714 L 198.59276,748.79177 z M 161.65179,656.6037 L 166.38754,653.02878 L 164.51791,647.38388 L 169.26907,650.85609 L 173.98429,647.35306 L 172.13518,653.00309 L 176.94286,656.6037 L 171.06681,656.57803 L 169.31016,662.09451 L 167.54324,656.5883 L 161.65179,656.6037 z M 137.06386,663.89738 L 141.80476,660.31732 L 139.94539,654.67756 L 144.68627,658.1395 L 149.41176,654.6416 L 147.56266,660.30706 L 152.36518,663.90767 L 146.48914,663.87172 L 144.72737,669.38821 L 142.97585,663.88198 L 137.06386,663.89738 z M 116.30255,683.73415 L 121.02802,680.15409 L 119.17892,674.51433 L 123.90954,677.97625 L 128.61962,674.4835 L 126.77053,680.1284 L 131.57305,683.74444 L 125.70728,683.69821 L 123.9455,689.21983 L 122.19399,683.71362 L 116.30255,683.73415 z M 115.21876,705.42517 L 113.35425,699.7854 L 118.09,703.24734 L 122.80522,699.74431 L 120.97153,705.40976 L 125.76379,709.01551 L 119.89288,708.96414 L 118.14137,714.48576 L 116.37958,708.98469 L 110.47786,709.00524 L 115.21876,705.42517 z M 128.89185,731.25611 L 133.68411,734.85159 L 127.80807,734.81564 L 126.05656,740.33726 L 124.28964,734.83104 L 118.40333,734.85159 L 123.13395,731.27151 L 121.27971,725.62148 L 126.01547,729.09882 L 130.73067,725.60093 L 128.89185,731.25611 z M 141.18326,752.36156 L 135.28666,752.38211 L 140.02756,748.79177 L 138.15791,743.15714 L 142.89881,746.62421 L 147.61916,743.12632 L 145.77519,748.7815 L 150.57773,752.39751 L 144.69655,752.34103 L 142.9399,757.85751 L 141.18326,752.36156 z M 167.49187,759.13133 L 161.59016,759.13133 L 166.33619,755.56154 L 164.49222,749.91664 L 169.23312,753.38885 L 173.95347,749.91664 L 172.08895,755.56154 L 176.88121,759.13133 L 171.01031,759.13133 L 169.23312,764.63756 L 167.49187,759.13133 z" /><path
       id="path4225"
       style="fill:none;stroke:#fff200;stroke-width:0.87318754;stroke-linecap:butt;stroke-linejoin:miter;stroke-miterlimit:10;stroke-dasharray:none;stroke-opacity:1"
       d="M 186.25,663.90767 L 191.04739,660.30706 L 189.20343,654.6416 L 193.92378,658.1395 L 198.66467,654.67756 L 196.79502,660.31732 L 201.53592,663.89738 L 195.64447,663.88198 L 193.88269,669.38821 L 192.1209,663.87172 L 186.25,663.90767 z M 207.04214,683.74444 L 211.84467,680.1284 L 209.99556,674.4835 L 214.71078,677.97625 L 219.45682,674.51433 L 217.59744,680.15409 L 222.32806,683.73415 L 216.43661,683.71362 L 214.66455,689.21983 L 212.91304,683.69821 L 207.04214,683.74444 z M 225.27636,699.7854 L 223.41698,705.42517 L 228.15273,709.00524 L 222.25615,708.98469 L 220.4995,714.48576 L 218.73771,708.96414 L 212.85654,709.01551 L 217.65908,705.40976 L 215.82024,699.74431 L 220.54058,703.24734 L 225.27636,699.7854 z M 210.79684,734.81564 L 204.92594,734.85159 L 209.72334,731.25611 L 207.88964,725.60093 L 212.60486,729.09882 L 217.34575,725.62148 L 215.48124,731.27151 L 220.21699,734.85159 L 214.32555,734.83104 L 212.55863,740.33726 L 210.79684,734.81564 z M 198.59276,748.79177 L 203.33366,752.38211 L 197.43194,752.36156 L 195.66502,757.85751 L 193.91351,752.34103 L 188.03747,752.39751 L 192.85028,748.7815 L 191.00117,743.12632 L 195.71638,746.62421 L 200.46241,743.15714 L 198.59276,748.79177 z M 161.65179,656.6037 L 166.38754,653.02878 L 164.51791,647.38388 L 169.26907,650.85609 L 173.98429,647.35306 L 172.13518,653.00309 L 176.94286,656.6037 L 171.06681,656.57803 L 169.31016,662.09451 L 167.54324,656.5883 L 161.65179,656.6037 z M 137.06386,663.89738 L 141.80476,660.31732 L 139.94539,654.67756 L 144.68627,658.1395 L 149.41176,654.6416 L 147.56266,660.30706 L 152.36518,663.90767 L 146.48914,663.87172 L 144.72737,669.38821 L 142.97585,663.88198 L 137.06386,663.89738 z M 116.30255,683.73415 L 121.02802,680.15409 L 119.17892,674.51433 L 123.90954,677.97625 L 128.61962,674.4835 L 126.77053,680.1284 L 131.57305,683.74444 L 125.70728,683.69821 L 123.9455,689.21983 L 122.19399,683.71362 L 116.30255,683.73415 z M 115.21876,705.42517 L 113.35425,699.7854 L 118.09,703.24734 L 122.80522,699.74431 L 120.97153,705.40976 L 125.76379,709.01551 L 119.89288,708.96414 L 118.14137,714.48576 L 116.37958,708.98469 L 110.47786,709.00524 L 115.21876,705.42517 z M 128.89185,731.25611 L 133.68411,734.85159 L 127.80807,734.81564 L 126.05656,740.33726 L 124.28964,734.83104 L 118.40333,734.85159 L 123.13395,731.27151 L 121.27971,725.62148 L 126.01547,729.09882 L 130.73067,725.60093 L 128.89185,731.25611 z M 141.18326,752.36156 L 135.28666,752.38211 L 140.02756,748.79177 L 138.15791,743.15714 L 142.89881,746.62421 L 147.61916,743.12632 L 145.77519,748.7815 L 150.57773,752.39751 L 144.69655,752.34103 L 142.9399,757.85751 L 141.18326,752.36156 z M 167.49187,759.13133 L 161.59016,759.13133 L 166.33619,755.56154 L 164.49222,749.91664 L 169.23312,753.38885 L 173.95347,749.91664 L 172.08895,755.56154 L 176.88121,759.13133 L 171.01031,759.13133 L 169.23312,764.63756 L 167.49187,759.13133 z" /></g></svg>