<svg xmlns="http://www.w3.org/2000/svg" xmlns:xlink="http://www.w3.org/1999/xlink" width="316.22776601683796" height="316.22776601683796" viewBox="0 0 284 284" version="1.1">
<defs>
<clipPath id="clip1">
  <path d="M 0 0.535156 L 283.464844 0.535156 L 283.464844 284 L 0 284 Z M 0 0.535156 "/>
</clipPath>
</defs>
<g id="surface1">
<g clip-path="url(#clip1)" clip-rule="nonzero">
<path style=" stroke:none;fill-rule:nonzero;fill:rgb(1.399231%,16.497803%,24.061584%);fill-opacity:1;" d="M 283.464844 142.265625 C 283.464844 220.542969 220.007812 284 141.730469 284 C 63.457031 284 0 220.542969 0 142.265625 C 0 63.992188 63.457031 0.535156 141.730469 0.535156 C 220.148438 0.535156 283.464844 63.851562 283.464844 142.265625 "/>
</g>
<path style=" stroke:none;fill-rule:nonzero;fill:rgb(1.399231%,16.497803%,24.061584%);fill-opacity:1;" d="M 141.734375 253.292969 C 80.511719 253.292969 30.707031 203.488281 30.707031 142.265625 C 30.707031 81.046875 80.511719 31.242188 141.734375 31.242188 C 202.953125 31.242188 252.757812 81.046875 252.757812 142.265625 C 252.757812 203.488281 202.953125 253.292969 141.734375 253.292969 "/>
<path style=" stroke:none;fill-rule:nonzero;fill:rgb(100%,100%,100%);fill-opacity:1;" d="M 141.730469 30.742188 C 111.941406 30.742188 83.9375 42.34375 62.871094 63.40625 C 41.808594 84.472656 30.207031 112.476562 30.207031 142.265625 C 30.207031 172.058594 41.808594 200.0625 62.871094 221.128906 C 83.9375 242.191406 111.941406 253.792969 141.730469 253.792969 C 171.523438 253.792969 199.527344 242.191406 220.59375 221.128906 C 241.65625 200.0625 253.257812 172.058594 253.257812 142.265625 C 253.257812 112.476562 241.65625 84.472656 220.59375 63.40625 C 199.527344 42.34375 171.523438 30.742188 141.730469 30.742188 Z M 141.730469 31.742188 C 202.773438 31.742188 252.257812 81.226562 252.257812 142.265625 C 252.257812 203.308594 202.773438 252.792969 141.730469 252.792969 C 80.691406 252.792969 31.207031 203.308594 31.207031 142.265625 C 31.207031 81.226562 80.691406 31.742188 141.730469 31.742188 "/>
<path style=" stroke:none;fill-rule:nonzero;fill:rgb(0%,65.098572%,31.369019%);fill-opacity:1;" d="M 248.296875 224.316406 C 249.347656 223.023438 250.304688 221.660156 251.269531 220.296875 C 252.222656 218.933594 253.230469 217.605469 254.105469 216.183594 L 240.03125 206.90625 C 239.273438 208.15625 238.382812 209.3125 237.550781 210.507812 C 236.707031 211.699219 235.875 212.898438 234.949219 214.023438 L 248.296875 224.316406 "/>
<path style=" stroke:none;fill-rule:nonzero;fill:rgb(92.939758%,10.978699%,14.118958%);fill-opacity:1;" d="M 237.121094 237.097656 C 239.054688 235.03125 241.089844 233.054688 242.898438 230.871094 L 245.667969 227.65625 L 248.292969 224.316406 L 234.945312 214.027344 L 232.652344 216.949219 L 230.222656 219.765625 C 228.648438 221.679688 226.855469 223.398438 225.171875 225.214844 L 237.121094 237.097656 "/>
<path style=" stroke:none;fill-rule:nonzero;fill:rgb(99.291992%,86.499023%,1.412964%);fill-opacity:1;" d="M 245.175781 221.90625 C 243.582031 223.921875 240.777344 224.285156 238.867188 222.683594 C 236.996094 221.113281 236.632812 218.308594 238.097656 216.453125 C 238.84375 215.523438 239.894531 214.96875 240.988281 214.792969 C 242.097656 214.628906 243.292969 214.875 244.296875 215.59375 C 245.300781 216.308594 245.914062 217.371094 246.085938 218.523438 C 246.273438 219.6875 245.972656 220.910156 245.175781 221.90625 Z M 244.46875 221.363281 C 245.753906 219.78125 245.371094 217.464844 243.777344 216.320312 C 242.171875 215.164062 240.011719 215.519531 238.804688 216.996094 C 237.628906 218.496094 237.910156 220.734375 239.429688 221.988281 C 240.949219 223.242188 243.210938 222.964844 244.46875 221.363281 "/>
<path style=" stroke:none;fill-rule:nonzero;fill:rgb(99.291992%,86.499023%,1.412964%);fill-opacity:1;" d="M 240.074219 221.167969 C 238.988281 220.289062 238.789062 218.707031 239.632812 217.632812 C 240.488281 216.570312 242.058594 216.351562 243.175781 217.167969 C 244.3125 218.007812 244.535156 219.609375 243.640625 220.722656 C 242.757812 221.847656 241.160156 222.046875 240.074219 221.167969 "/>
<path style=" stroke:none;fill-rule:nonzero;fill:rgb(10.81543%,38.687134%,71.856689%);fill-opacity:1;" d="M 124.222656 264.273438 L 123.429688 269.847656 C 131.964844 271.0625 140.617188 271.417969 149.222656 270.929688 L 148.902344 265.3125 C 140.667969 265.777344 132.386719 265.433594 124.222656 264.273438 "/>
<path style=" stroke:none;fill-rule:nonzero;fill:rgb(100%,100%,100%);fill-opacity:1;" d="M 123.429688 269.84375 L 122.640625 275.410156 C 131.550781 276.675781 140.570312 277.046875 149.546875 276.539062 L 149.222656 270.925781 C 140.617188 271.414062 131.96875 271.054688 123.429688 269.84375 "/>
<path style=" stroke:none;fill-rule:nonzero;fill:rgb(92.939758%,10.978699%,14.118958%);fill-opacity:1;" d="M 125.011719 258.722656 L 124.222656 264.285156 C 132.382812 265.449219 140.667969 265.789062 148.902344 265.324219 L 148.582031 259.714844 C 140.714844 260.160156 132.800781 259.832031 125.011719 258.722656 "/>
<path style=" stroke:none;fill-rule:nonzero;fill:rgb(10.81543%,38.687134%,71.856689%);fill-opacity:1;" d="M 145.402344 275.046875 C 146.691406 275.015625 147.515625 274.542969 147.515625 274.542969 C 147.515625 274.542969 147.429688 272.605469 147.355469 270.84375 C 147.273438 269.078125 145.328125 268.71875 145.328125 268.71875 L 145.226562 268.71875 C 145.226562 268.71875 143.304688 269.175781 143.320312 270.945312 C 143.339844 272.710938 143.363281 274.648438 143.363281 274.648438 C 143.363281 274.648438 144.210938 275.078125 145.5 275.042969 L 145.402344 275.046875 "/>
<path style=" stroke:none;fill-rule:nonzero;fill:rgb(100%,100%,100%);fill-opacity:1;" d="M 145.445312 274.824219 C 144.535156 274.835938 143.859375 274.609375 143.597656 274.503906 L 143.546875 270.9375 C 143.535156 270.15625 143.953125 269.660156 144.375 269.359375 C 144.585938 269.207031 144.796875 269.105469 144.957031 269.039062 C 145.117188 268.972656 145.226562 268.945312 145.230469 268.941406 L 145.285156 268.9375 C 145.355469 268.949219 147.054688 269.289062 147.125 270.847656 L 147.273438 274.410156 C 147.015625 274.527344 146.355469 274.792969 145.445312 274.824219 Z M 145.171875 268.503906 C 145.171875 268.503906 144.640625 268.636719 144.121094 269.007812 C 143.601562 269.375 143.082031 269.988281 143.09375 270.949219 L 143.132812 274.78125 L 143.25 274.84375 C 143.269531 274.855469 143.488281 274.960938 143.863281 275.070312 C 144.234375 275.175781 144.765625 275.277344 145.410156 275.269531 L 145.503906 275.269531 L 145.503906 275.265625 C 146.144531 275.242188 146.671875 275.113281 147.039062 274.988281 C 147.40625 274.863281 147.617188 274.742188 147.636719 274.734375 L 147.753906 274.667969 L 147.582031 270.835938 C 147.488281 268.910156 145.386719 268.503906 145.320312 268.492188 L 145.171875 268.503906 "/>
<path style=" stroke:none;fill-rule:nonzero;fill:rgb(15.704346%,29.719543%,64.416504%);fill-opacity:1;" d="M 26.535156 200.121094 C 22.660156 192.417969 19.558594 184.324219 17.308594 176 L 22.742188 174.527344 C 24.894531 182.488281 27.855469 190.226562 31.566406 197.589844 L 26.535156 200.121094 "/>
<path style=" stroke:none;fill-rule:nonzero;fill:rgb(100%,100%,100%);fill-opacity:1;" d="M 21.519531 202.644531 C 17.46875 194.605469 14.234375 186.15625 11.882812 177.464844 L 17.3125 175.996094 C 19.566406 184.320312 22.664062 192.414062 26.542969 200.117188 L 21.519531 202.644531 "/>
<path style=" stroke:none;fill-rule:nonzero;fill:rgb(93.006897%,11.541748%,15.57312%);fill-opacity:1;" d="M 31.554688 197.597656 C 27.84375 190.230469 24.882812 182.492188 22.730469 174.53125 L 28.167969 173.0625 C 30.222656 180.652344 33.050781 188.035156 36.589844 195.0625 L 31.554688 197.597656 "/>
<path style=" stroke:none;fill-rule:nonzero;fill:rgb(100%,100%,100%);fill-opacity:1;" d="M 29.566406 189.015625 C 29.4375 190.636719 29.023438 193.128906 26.410156 194.328125 C 23.804688 195.503906 22.5625 195.910156 22.5625 195.910156 C 22.070312 194.789062 21.527344 193.695312 21.082031 192.554688 L 19.734375 189.144531 C 19.734375 189.144531 20.898438 188.542969 23.566406 187.523438 C 26.242188 186.511719 28.363281 187.949219 29.566406 189.015625 "/>
<path style=" stroke:none;fill-rule:nonzero;fill:rgb(100%,100%,100%);fill-opacity:1;" d="M 20.019531 189.257812 C 20.441406 189.058594 21.601562 188.519531 23.648438 187.730469 C 25.558594 187 27.484375 187.492188 29.335938 189.109375 C 29.148438 191.582031 28.191406 193.273438 26.320312 194.121094 C 24.320312 195.019531 23.117188 195.46875 22.679688 195.625 C 22.21875 194.574219 21.703125 193.539062 21.285156 192.46875 Z M 29.71875 188.851562 C 27.710938 187.066406 25.597656 186.511719 23.484375 187.316406 C 22.160156 187.820312 21.207031 188.21875 20.578125 188.496094 C 19.953125 188.769531 19.652344 188.925781 19.628906 188.9375 L 19.449219 189.027344 L 20.875 192.640625 C 21.351562 193.84375 21.921875 195.007812 22.445312 196.191406 L 22.636719 196.128906 C 22.660156 196.121094 22.980469 196.015625 23.621094 195.765625 C 24.257812 195.511719 25.210938 195.117188 26.503906 194.527344 C 28.570312 193.585938 29.617188 191.71875 29.785156 189.023438 L 29.792969 188.917969 L 29.71875 188.851562 "/>
<path style=" stroke:none;fill-rule:nonzero;fill:rgb(93.006897%,11.541748%,15.57312%);fill-opacity:1;" d="M 23.710938 187.792969 C 21.265625 188.738281 20.199219 189.289062 20.199219 189.289062 L 21.429688 192.410156 C 21.835938 193.453125 22.335938 194.457031 22.785156 195.480469 C 22.785156 195.480469 23.925781 195.109375 26.320312 194.035156 C 26.726562 193.851562 27.058594 193.621094 27.359375 193.375 C 26.933594 192.40625 26.460938 191.457031 26.078125 190.46875 L 24.914062 187.515625 C 24.527344 187.558594 24.128906 187.632812 23.710938 187.792969 "/>
<path style=" stroke:none;fill-rule:nonzero;fill:rgb(15.704346%,29.719543%,64.416504%);fill-opacity:1;" d="M 29.214844 189.160156 C 28.296875 188.34375 26.796875 187.320312 24.914062 187.515625 L 26.078125 190.46875 C 26.460938 191.457031 26.933594 192.40625 27.359375 193.375 C 28.832031 192.167969 29.105469 190.40625 29.214844 189.160156 "/>
<path style=" stroke:none;fill-rule:nonzero;fill:rgb(92.939758%,10.978699%,14.118958%);fill-opacity:1;" d="M 89.894531 31.945312 C 82.519531 35.414062 75.492188 39.625 68.949219 44.492188 L 71.476562 47.878906 C 77.789062 43.179688 84.574219 39.113281 91.695312 35.769531 L 89.894531 31.945312 "/>
<path style=" stroke:none;fill-rule:nonzero;fill:rgb(99.291992%,86.499023%,1.412964%);fill-opacity:1;" d="M 86.304688 24.316406 C 78.414062 28.023438 70.902344 32.53125 63.910156 37.734375 L 68.949219 44.492188 C 75.492188 39.625 82.519531 35.414062 89.894531 31.945312 L 86.304688 24.316406 "/>
<path style=" stroke:none;fill-rule:nonzero;fill:rgb(92.939758%,10.978699%,14.118958%);fill-opacity:1;" d="M 84.511719 20.503906 C 76.363281 24.332031 68.605469 28.984375 61.390625 34.355469 L 63.910156 37.734375 C 70.902344 32.53125 78.414062 28.023438 86.304688 24.316406 L 84.511719 20.503906 "/>
<path style=" stroke:none;fill-rule:nonzero;fill:rgb(92.939758%,10.978699%,14.118958%);fill-opacity:1;" d="M 184.425781 269.84375 C 185.839844 269.347656 187.277344 268.910156 188.675781 268.363281 L 192.863281 266.710938 L 186.449219 251.109375 L 182.789062 252.554688 C 181.566406 253.035156 180.308594 253.40625 179.070312 253.84375 L 184.425781 269.84375 "/>
<path style=" stroke:none;fill-rule:nonzero;fill:rgb(99.291992%,86.499023%,1.412964%);fill-opacity:1;" d="M 192.863281 266.710938 C 194.269531 266.191406 195.617188 265.523438 196.988281 264.921875 C 198.34375 264.28125 199.742188 263.730469 201.058594 263.019531 L 193.609375 247.882812 C 192.460938 248.511719 191.234375 248.984375 190.050781 249.542969 C 188.851562 250.070312 187.679688 250.660156 186.449219 251.109375 L 192.863281 266.710938 "/>
<path style=" stroke:none;fill-rule:nonzero;fill:rgb(11.268616%,26.307678%,55.084229%);fill-opacity:1;" d="M 201.058594 263.019531 L 205.070312 260.964844 C 206.410156 260.289062 207.683594 259.492188 208.992188 258.761719 L 200.546875 244.15625 C 199.398438 244.792969 198.289062 245.503906 197.113281 246.085938 L 193.609375 247.882812 L 201.058594 263.019531 "/>
<path style=" stroke:none;fill-rule:nonzero;fill:rgb(92.939758%,10.978699%,14.118958%);fill-opacity:1;" d="M 256.445312 212.5625 C 261.15625 204.898438 265.105469 196.757812 268.175781 188.289062 L 252.324219 182.519531 C 249.644531 189.914062 246.191406 197.03125 242.066406 203.734375 L 256.445312 212.5625 "/>
<path style=" stroke:none;fill-rule:nonzero;fill:rgb(100%,100%,100%);fill-opacity:1;" d="M 260.253906 185.40625 C 257.378906 193.335938 253.675781 200.964844 249.257812 208.148438 L 256.445312 212.5625 C 261.15625 204.898438 265.105469 196.757812 268.175781 188.289062 L 260.253906 185.40625 "/>
<path style=" stroke:none;fill-rule:nonzero;fill:rgb(92.939758%,10.978699%,14.118958%);fill-opacity:1;" d="M 275.753906 153.585938 C 276.5 144.621094 276.363281 135.601562 275.332031 126.660156 L 258.578125 128.597656 C 259.480469 136.414062 259.597656 144.339844 258.945312 152.183594 L 275.753906 153.585938 "/>
<path style=" stroke:none;fill-rule:nonzero;fill:rgb(100%,100%,100%);fill-opacity:1;" d="M 259.320312 139.40625 L 265.640625 139.257812 C 265.660156 140.378906 265.71875 141.5 265.710938 142.621094 L 265.621094 145.988281 C 265.578125 147.109375 265.601562 148.234375 265.503906 149.351562 L 265.246094 152.710938 L 269.445312 153.058594 L 269.710938 149.589844 C 269.8125 148.433594 269.789062 147.269531 269.835938 146.113281 L 269.921875 142.632812 C 269.929688 141.472656 269.875 140.316406 269.851562 139.15625 L 276.183594 139.003906 C 276.128906 137.503906 276.148438 136.003906 276.027344 134.507812 L 269.703125 134.867188 L 269.417969 131.121094 L 269.277344 129.253906 L 269.046875 127.390625 L 264.859375 127.871094 L 265.085938 129.675781 L 265.222656 131.484375 L 265.496094 135.105469 L 259.183594 135.464844 C 259.296875 136.777344 259.269531 138.09375 259.320312 139.40625 "/>
<path style=" stroke:none;fill-rule:nonzero;fill:rgb(10.81543%,38.687134%,71.856689%);fill-opacity:1;" d="M 267.996094 127.511719 C 268.203125 128.914062 268.308594 130.332031 268.410156 131.746094 C 268.511719 133.164062 268.640625 134.578125 268.71875 135.996094 L 276.097656 135.636719 L 276.15625 137.867188 L 268.773438 138.105469 L 268.867188 141.824219 C 268.878906 143.0625 268.816406 144.304688 268.796875 145.542969 C 268.753906 146.78125 268.753906 148.023438 268.679688 149.261719 L 268.394531 152.972656 L 266.296875 152.796875 L 266.574219 149.148438 C 266.652344 147.929688 266.648438 146.710938 266.691406 145.488281 C 266.710938 144.269531 266.773438 143.050781 266.761719 141.832031 L 266.667969 138.171875 L 259.296875 138.410156 L 259.246094 136.457031 L 266.617188 136.097656 C 266.535156 134.703125 266.410156 133.3125 266.3125 131.921875 C 266.214844 130.527344 266.109375 129.132812 265.90625 127.753906 L 267.996094 127.511719 "/>
<path style=" stroke:none;fill-rule:nonzero;fill:rgb(100%,100%,100%);fill-opacity:1;" d="M 269.5625 184.203125 C 272.367188 175.652344 274.304688 166.8125 275.335938 157.875 L 258.578125 155.9375 C 257.679688 163.757812 255.988281 171.476562 253.535156 178.949219 L 269.5625 184.203125 "/>
<path style=" stroke:none;fill-rule:nonzero;fill:rgb(10.81543%,38.687134%,71.856689%);fill-opacity:1;" d="M 258.875 180.699219 C 261.445312 172.867188 263.21875 164.773438 264.164062 156.582031 L 258.578125 155.9375 C 257.675781 163.753906 255.984375 171.476562 253.53125 178.949219 L 258.875 180.699219 "/>
<path style=" stroke:none;fill-rule:nonzero;fill:rgb(92.939758%,10.978699%,14.118958%);fill-opacity:1;" d="M 269.5625 184.203125 C 272.367188 175.652344 274.304688 166.8125 275.335938 157.875 L 269.742188 157.230469 C 268.757812 165.792969 266.902344 174.257812 264.214844 182.449219 L 269.5625 184.203125 "/>
<path style=" stroke:none;fill-rule:nonzero;fill:rgb(92.939758%,10.978699%,14.118958%);fill-opacity:1;" d="M 274.789062 122.382812 C 273.472656 113.480469 271.253906 104.707031 268.179688 96.246094 L 262.882812 98.171875 C 265.828125 106.277344 267.953125 114.679688 269.21875 123.210938 L 274.789062 122.382812 "/>
<path style=" stroke:none;fill-rule:nonzero;fill:rgb(100%,100%,100%);fill-opacity:1;" d="M 269.21875 123.210938 C 267.953125 114.679688 265.828125 106.277344 262.882812 98.171875 L 257.589844 100.101562 C 260.40625 107.847656 262.433594 115.878906 263.644531 124.035156 L 269.21875 123.210938 "/>
<path style=" stroke:none;fill-rule:nonzero;fill:rgb(5.412292%,53.250122%,82.783508%);fill-opacity:1;" d="M 258.101562 124.855469 L 263.648438 124.035156 C 262.4375 115.878906 260.410156 107.847656 257.59375 100.097656 L 252.332031 102.039062 C 255.015625 109.425781 256.949219 117.082031 258.101562 124.855469 "/>
<path style=" stroke:none;fill-rule:nonzero;fill:rgb(92.939758%,10.978699%,14.118958%);fill-opacity:1;" d="M 266.609375 92.226562 L 265.78125 90.132812 C 265.492188 89.4375 265.171875 88.761719 264.867188 88.074219 L 263.007812 83.972656 L 247.808594 91.289062 L 249.429688 94.878906 C 249.695312 95.476562 249.980469 96.070312 250.230469 96.675781 L 250.949219 98.507812 L 266.609375 92.226562 "/>
<path style=" stroke:none;fill-rule:nonzero;fill:rgb(100%,100%,100%);fill-opacity:1;" d="M 263.007812 83.972656 L 260.96875 79.976562 L 259.933594 77.984375 L 258.820312 76.039062 L 244.140625 84.359375 L 245.121094 86.058594 L 246.019531 87.800781 L 247.808594 91.289062 L 263.007812 83.972656 "/>
<path style=" stroke:none;fill-rule:nonzero;fill:rgb(0%,65.098572%,31.369019%);fill-opacity:1;" d="M 258.820312 76.039062 C 258.0625 74.742188 257.335938 73.421875 256.550781 72.140625 L 254.117188 68.34375 L 240.03125 77.628906 L 242.160156 80.945312 C 242.847656 82.066406 243.480469 83.222656 244.140625 84.359375 L 258.820312 76.039062 "/>
<path style=" stroke:none;fill-rule:nonzero;fill:rgb(96.469116%,52.938843%,7.058716%);fill-opacity:1;" d="M 251.683594 64.789062 C 250.800781 63.574219 249.972656 62.320312 249.039062 61.144531 L 246.261719 57.605469 L 233.15625 68.230469 L 235.589844 71.324219 C 236.40625 72.355469 237.125 73.457031 237.898438 74.515625 L 251.683594 64.789062 "/>
<path style=" stroke:none;fill-rule:nonzero;fill:rgb(100%,100%,100%);fill-opacity:1;" d="M 246.261719 57.605469 C 245.359375 56.40625 244.328125 55.316406 243.363281 54.171875 C 242.371094 53.050781 241.429688 51.886719 240.371094 50.820312 L 228.003906 62.292969 C 228.933594 63.21875 229.753906 64.246094 230.617188 65.226562 C 231.460938 66.230469 232.375 67.175781 233.15625 68.230469 L 246.261719 57.605469 "/>
<path style=" stroke:none;fill-rule:nonzero;fill:rgb(0%,65.098572%,31.369019%);fill-opacity:1;" d="M 240.371094 50.816406 L 237.265625 47.5625 C 236.21875 46.488281 235.109375 45.480469 234.03125 44.4375 L 222.453125 56.707031 C 223.394531 57.621094 224.371094 58.5 225.285156 59.441406 L 228 62.289062 L 240.371094 50.816406 "/>
<path style=" stroke:none;fill-rule:nonzero;fill:rgb(92.939758%,10.978699%,14.118958%);fill-opacity:1;" d="M 230.851562 41.523438 C 224.113281 35.566406 216.785156 30.28125 208.996094 25.777344 L 206.175781 30.652344 C 213.636719 34.96875 220.660156 40.03125 227.117188 45.742188 L 230.851562 41.523438 "/>
<path style=" stroke:none;fill-rule:nonzero;fill:rgb(100%,100%,100%);fill-opacity:1;" d="M 227.117188 45.742188 C 220.660156 40.03125 213.636719 34.96875 206.175781 30.652344 L 203.351562 35.53125 C 210.488281 39.65625 217.207031 44.5 223.382812 49.960938 L 227.117188 45.742188 "/>
<path style=" stroke:none;fill-rule:nonzero;fill:rgb(0%,65.098572%,31.369019%);fill-opacity:1;" d="M 219.671875 54.15625 L 223.386719 49.960938 C 217.210938 44.5 210.488281 39.652344 203.355469 35.527344 L 200.570312 40.390625 C 207.371094 44.328125 213.78125 48.949219 219.671875 54.15625 "/>
<path style=" stroke:none;fill-rule:nonzero;fill:rgb(10.81543%,38.687134%,71.856689%);fill-opacity:1;" d="M 189.113281 18.308594 L 193.019531 19.847656 C 194.308594 20.390625 195.574219 20.988281 196.851562 21.558594 C 199.425781 22.65625 201.878906 24.007812 204.375 25.269531 L 205.238281 23.660156 C 202.707031 22.382812 200.21875 21.015625 197.609375 19.898438 C 196.3125 19.320312 195.03125 18.714844 193.722656 18.164062 L 189.765625 16.605469 L 189.113281 18.308594 "/>
<path style=" stroke:none;fill-rule:nonzero;fill:rgb(10.81543%,38.687134%,71.856689%);fill-opacity:1;" d="M 203.492188 26.914062 C 201.03125 25.675781 198.613281 24.339844 196.074219 23.257812 C 194.8125 22.695312 193.566406 22.105469 192.296875 21.570312 L 188.449219 20.054688 L 187.765625 21.832031 L 191.558594 23.328125 C 192.8125 23.855469 194.039062 24.4375 195.28125 24.988281 C 197.78125 26.054688 200.164062 27.371094 202.59375 28.59375 L 203.492188 26.914062 "/>
<path style=" stroke:none;fill-rule:nonzero;fill:rgb(10.81543%,38.687134%,71.856689%);fill-opacity:1;" d="M 186.425781 25.34375 L 190.105469 26.796875 C 191.320312 27.304688 192.511719 27.871094 193.71875 28.40625 C 196.148438 29.441406 198.457031 30.722656 200.816406 31.90625 L 201.6875 30.273438 C 199.296875 29.074219 196.953125 27.773438 194.488281 26.726562 C 193.265625 26.183594 192.054688 25.605469 190.820312 25.089844 L 187.085938 23.617188 L 186.425781 25.34375 "/>
<path style=" stroke:none;fill-rule:nonzero;fill:rgb(10.81543%,38.687134%,71.856689%);fill-opacity:1;" d="M 176.546875 25.988281 C 184.324219 28.3125 191.863281 31.421875 199.019531 35.253906 L 199.910156 33.589844 C 192.644531 29.695312 184.988281 26.535156 177.089844 24.179688 L 176.546875 25.988281 "/>
<path style=" stroke:none;fill-rule:nonzero;fill:rgb(10.81543%,38.687134%,71.856689%);fill-opacity:1;" d="M 175.484375 29.546875 C 183.019531 31.792969 190.328125 34.808594 197.265625 38.523438 L 198.125 36.921875 C 191.082031 33.144531 183.660156 30.085938 176.007812 27.800781 L 175.484375 29.546875 "/>
<path style=" stroke:none;fill-rule:nonzero;fill:rgb(100%,100%,100%);fill-opacity:1;" d="M 188.449219 20.054688 L 192.296875 21.570312 C 193.566406 22.105469 194.8125 22.695312 196.074219 23.257812 C 198.613281 24.339844 201.03125 25.675781 203.492188 26.914062 L 204.375 25.269531 C 201.878906 24.007812 199.425781 22.65625 196.851562 21.558594 C 195.574219 20.988281 194.308594 20.390625 193.019531 19.847656 L 189.113281 18.308594 L 188.449219 20.054688 "/>
<path style=" stroke:none;fill-rule:nonzero;fill:rgb(100%,100%,100%);fill-opacity:1;" d="M 187.085938 23.613281 L 190.820312 25.085938 C 192.054688 25.601562 193.265625 26.179688 194.488281 26.722656 C 196.953125 27.773438 199.300781 29.070312 201.691406 30.273438 L 202.59375 28.59375 C 200.164062 27.371094 197.78125 26.054688 195.28125 24.988281 C 194.039062 24.4375 192.8125 23.855469 191.558594 23.328125 L 187.765625 21.832031 L 187.085938 23.613281 "/>
<path style=" stroke:none;fill-rule:nonzero;fill:rgb(100%,100%,100%);fill-opacity:1;" d="M 177.089844 24.179688 C 184.988281 26.535156 192.644531 29.695312 199.910156 33.589844 L 200.816406 31.90625 C 193.433594 27.953125 185.65625 24.742188 177.636719 22.347656 L 177.089844 24.179688 "/>
<path style=" stroke:none;fill-rule:nonzero;fill:rgb(100%,100%,100%);fill-opacity:1;" d="M 176.007812 27.796875 C 183.660156 30.082031 191.082031 33.144531 198.125 36.914062 L 199.019531 35.253906 C 191.863281 31.421875 184.324219 28.3125 176.546875 25.988281 L 176.007812 27.796875 "/>
<path style=" stroke:none;fill-rule:nonzero;fill:rgb(99.291992%,86.499023%,1.412964%);fill-opacity:1;" d="M 20.902344 117.6875 C 19.269531 125.769531 18.453125 134.015625 18.445312 142.265625 L 24.070312 142.265625 C 24.078125 134.382812 24.855469 126.511719 26.417969 118.800781 L 20.902344 117.6875 "/>
<path style=" stroke:none;fill-rule:nonzero;fill:rgb(92.939758%,10.978699%,14.118958%);fill-opacity:1;" d="M 15.394531 116.570312 C 13.6875 125.023438 12.832031 133.648438 12.828125 142.265625 L 18.445312 142.265625 C 18.453125 134.015625 19.269531 125.769531 20.902344 117.6875 L 15.394531 116.570312 "/>
<path style=" stroke:none;fill-rule:nonzero;fill:rgb(13.729858%,12.159729%,12.548828%);fill-opacity:1;" d="M 9.882812 115.457031 C 8.097656 124.28125 7.207031 133.277344 7.199219 142.265625 L 12.828125 142.265625 C 12.832031 133.648438 13.6875 125.023438 15.394531 116.570312 L 9.882812 115.457031 "/>
<path style=" stroke:none;fill-rule:nonzero;fill:rgb(92.939758%,10.978699%,14.118958%);fill-opacity:1;" d="M 176.164062 12.203125 C 174.722656 11.785156 173.246094 11.503906 171.789062 11.148438 C 170.328125 10.820312 168.871094 10.441406 167.390625 10.210938 L 164.1875 26.773438 C 165.488281 26.972656 166.753906 27.308594 168.035156 27.59375 C 169.308594 27.90625 170.601562 28.144531 171.859375 28.515625 L 176.164062 12.203125 "/>
<path style=" stroke:none;fill-rule:nonzero;fill:rgb(100%,100%,100%);fill-opacity:1;" d="M 167.390625 10.210938 L 162.957031 9.417969 C 161.480469 9.15625 159.984375 9.015625 158.496094 8.8125 L 156.414062 25.550781 C 157.714844 25.734375 159.023438 25.847656 160.3125 26.078125 L 164.1875 26.773438 L 167.390625 10.210938 "/>
<path style=" stroke:none;fill-rule:nonzero;fill:rgb(10.81543%,38.687134%,71.856689%);fill-opacity:1;" d="M 158.496094 8.8125 C 155.527344 8.371094 152.535156 8.214844 149.546875 7.976562 L 148.582031 24.820312 C 151.195312 25.035156 153.820312 25.160156 156.414062 25.550781 L 158.496094 8.8125 "/>
<path style=" stroke:none;fill-rule:nonzero;fill:rgb(100%,100%,100%);fill-opacity:1;" d="M 145.242188 7.820312 C 136.261719 7.589844 127.246094 8.242188 118.382812 9.796875 L 121.289062 26.390625 C 129.039062 25.035156 136.933594 24.460938 144.808594 24.664062 L 145.242188 7.820312 "/>
<path style=" stroke:none;fill-rule:nonzero;fill:rgb(10.81543%,38.687134%,71.856689%);fill-opacity:1;" d="M 120.230469 20.34375 C 122.679688 19.847656 125.167969 19.585938 127.644531 19.265625 L 128.339844 25.386719 C 129.765625 25.171875 131.210938 25.113281 132.644531 24.992188 L 132.175781 18.847656 L 135.367188 18.605469 L 138.566406 18.523438 L 141.769531 18.445312 L 144.96875 18.523438 L 145.085938 13.9375 L 141.769531 13.855469 L 138.453125 13.933594 L 135.136719 14.019531 L 131.828125 14.269531 L 131.363281 8.171875 C 129.722656 8.308594 128.074219 8.386719 126.441406 8.628906 L 127.128906 14.703125 C 124.558594 15.035156 121.980469 15.3125 119.4375 15.820312 L 120.230469 20.34375 "/>
<path style=" stroke:none;fill-rule:nonzero;fill:rgb(10.81543%,38.687134%,71.856689%);fill-opacity:1;" d="M 88.441406 18.726562 C 96.703125 15.152344 105.328125 12.417969 114.140625 10.578125 L 117.585938 27.097656 C 109.882812 28.703125 102.347656 31.089844 95.128906 34.214844 L 88.441406 18.726562 "/>
<path style=" stroke:none;fill-rule:nonzero;fill:rgb(1.856995%,1.144409%,0.559998%);fill-opacity:1;" d="M 90.671875 23.890625 C 98.585938 20.46875 106.847656 17.847656 115.289062 16.085938 L 117.585938 27.097656 C 109.882812 28.703125 102.347656 31.089844 95.128906 34.214844 L 90.671875 23.890625 "/>
<path style=" stroke:none;fill-rule:nonzero;fill:rgb(100%,100%,100%);fill-opacity:1;" d="M 92.898438 29.050781 C 100.46875 25.777344 108.367188 23.273438 116.4375 21.589844 L 117.585938 27.097656 C 109.882812 28.703125 102.347656 31.089844 95.128906 34.214844 L 92.898438 29.050781 "/>
<path style=" stroke:none;fill-rule:nonzero;fill:rgb(92.939758%,10.978699%,14.118958%);fill-opacity:1;" d="M 57.992188 37.011719 C 50.957031 42.613281 44.480469 48.917969 38.691406 55.800781 L 51.609375 66.652344 C 56.675781 60.628906 62.347656 55.109375 68.503906 50.207031 L 57.992188 37.011719 "/>
<path style=" stroke:none;fill-rule:nonzero;fill:rgb(100%,100%,100%);fill-opacity:1;" d="M 47.40625 46.371094 L 52.480469 51.53125 C 55.679688 48.421875 58.996094 45.425781 62.503906 42.671875 L 63.996094 44.546875 C 60.554688 47.253906 57.304688 50.191406 54.164062 53.238281 L 59.238281 58.398438 C 58.683594 58.90625 58.164062 59.449219 57.652344 59.996094 L 52.480469 54.933594 L 49.195312 58.390625 L 46.070312 61.996094 L 44.230469 60.453125 L 47.414062 56.78125 L 50.765625 53.257812 L 45.59375 48.195312 C 46.183594 47.570312 46.777344 46.953125 47.40625 46.371094 "/>
<path style=" stroke:none;fill-rule:nonzero;fill:rgb(100%,100%,100%);fill-opacity:1;" d="M 208.238281 249.386719 L 212.695312 256.550781 C 220.335938 251.792969 227.492188 246.273438 234.03125 240.097656 C 231.464844 240.65625 228.832031 241.039062 226.273438 241.394531 C 223.742188 241.785156 221.132812 241.976562 218.625 242.171875 C 215.292969 244.757812 211.8125 247.148438 208.238281 249.386719 "/>
<path style=" stroke:none;fill-rule:nonzero;fill:rgb(92.939758%,10.978699%,14.118958%);fill-opacity:1;" d="M 218.625 242.171875 C 219.417969 239.75 220.195312 237.417969 220.796875 234.980469 C 221.425781 232.578125 222.019531 230.238281 222.449219 227.828125 C 216.726562 233.234375 210.464844 238.066406 203.785156 242.226562 L 208.238281 249.386719 C 211.8125 247.148438 215.292969 244.757812 218.625 242.171875 "/>
<path style=" stroke:none;fill-rule:nonzero;fill:rgb(9.01947%,43.528748%,75.489807%);fill-opacity:1;" d="M 234.03125 240.097656 L 222.449219 227.828125 C 222.019531 230.238281 221.425781 232.578125 220.796875 234.980469 C 220.195312 237.417969 219.417969 239.75 218.625 242.171875 C 221.132812 241.976562 223.742188 241.785156 226.273438 241.394531 C 228.832031 241.039062 231.464844 240.65625 234.03125 240.097656 "/>
<path style=" stroke:none;fill-rule:nonzero;fill:rgb(92.939758%,10.978699%,14.118958%);fill-opacity:1;" d="M 35.984375 59.15625 C 34.085938 61.480469 32.378906 63.949219 30.640625 66.394531 L 44.566406 75.921875 C 46.089844 73.785156 47.574219 71.617188 49.242188 69.589844 L 35.984375 59.15625 "/>
<path style=" stroke:none;fill-rule:nonzero;fill:rgb(99.291992%,86.499023%,1.412964%);fill-opacity:1;" d="M 30.640625 66.394531 C 29.773438 67.613281 29.003906 68.902344 28.183594 70.15625 C 27.375 71.414062 26.554688 72.667969 25.828125 73.980469 L 40.355469 82.558594 C 40.984375 81.40625 41.710938 80.316406 42.417969 79.214844 C 43.136719 78.117188 43.800781 76.988281 44.566406 75.921875 L 30.640625 66.394531 "/>
<path style=" stroke:none;fill-rule:nonzero;fill:rgb(13.729858%,12.159729%,12.548828%);fill-opacity:1;" d="M 25.828125 73.980469 L 23.585938 77.886719 C 22.875 79.210938 22.207031 80.554688 21.519531 81.886719 L 36.589844 89.472656 C 37.191406 88.304688 37.773438 87.128906 38.394531 85.972656 L 40.355469 82.558594 L 25.828125 73.980469 "/>
<path style=" stroke:none;fill-rule:nonzero;fill:rgb(100%,100%,100%);fill-opacity:1;" d="M 19.640625 85.769531 C 15.859375 93.9375 12.902344 102.488281 10.835938 111.25 L 27.253906 115.125 C 29.058594 107.472656 31.640625 100.003906 34.949219 92.863281 L 19.640625 85.769531 "/>
<path style=" stroke:none;fill-rule:nonzero;fill:rgb(92.939758%,10.978699%,14.118958%);fill-opacity:1;" d="M 29.839844 90.496094 C 26.375 97.976562 23.664062 105.808594 21.773438 113.832031 L 27.253906 115.125 C 29.058594 107.472656 31.640625 100.003906 34.949219 92.863281 L 29.839844 90.496094 "/>
<path style=" stroke:none;fill-rule:nonzero;fill:rgb(92.939758%,10.978699%,14.118958%);fill-opacity:1;" d="M 19.640625 85.769531 C 15.859375 93.9375 12.902344 102.488281 10.835938 111.25 L 16.308594 112.539062 C 18.289062 104.148438 21.117188 95.960938 24.742188 88.136719 L 19.640625 85.769531 "/>
<path style=" stroke:none;fill-rule:nonzero;fill:rgb(92.939758%,10.978699%,14.118958%);fill-opacity:1;" d="M 7.308594 146.570312 C 7.589844 155.554688 8.765625 164.523438 10.835938 173.28125 L 27.253906 169.40625 C 25.445312 161.753906 24.417969 153.914062 24.167969 146.039062 L 7.308594 146.570312 "/>
<path style=" stroke:none;fill-rule:nonzero;fill:rgb(100%,100%,100%);fill-opacity:1;" d="M 7.539062 151.351562 L 7.871094 155.691406 C 8.019531 157.132812 8.222656 158.570312 8.402344 160.011719 C 8.707031 162.898438 9.304688 165.746094 9.796875 168.605469 L 26.34375 165.320312 C 25.921875 162.816406 25.382812 160.335938 25.125 157.804688 C 24.972656 156.546875 24.789062 155.289062 24.65625 154.027344 L 24.371094 150.226562 L 7.539062 151.351562 "/>
<path style=" stroke:none;fill-rule:nonzero;fill:rgb(92.939758%,10.978699%,14.118958%);fill-opacity:1;" d="M 24.003906 157.695312 C 23.105469 157.828125 22.097656 157.972656 20.984375 158.136719 C 20.828125 158.148438 20.625 158.171875 20.570312 158.027344 C 20.546875 157.78125 20.546875 157.613281 20.578125 157.335938 C 20.585938 157.121094 20.632812 156.171875 20.625 155.769531 C 20.636719 155.546875 20.652344 155.230469 20.65625 155.109375 C 20.65625 155.039062 20.546875 155.027344 20.511719 155.070312 C 20.222656 155.199219 20.003906 155.433594 19.644531 155.4375 C 19.472656 155.402344 19.371094 155.351562 19.1875 155.230469 C 18.949219 155.105469 17.105469 153.09375 16.9375 152.882812 C 16.773438 152.671875 16.523438 152.421875 16.367188 152.359375 C 16.316406 152.34375 16.332031 152.410156 16.335938 152.496094 C 16.339844 152.617188 16.265625 152.828125 16.214844 152.941406 C 16.085938 153.222656 15.800781 153.390625 15.554688 153.308594 C 15.289062 153.222656 14.503906 153.070312 14.230469 152.957031 C 14.042969 152.902344 13.890625 152.878906 13.707031 152.902344 C 13.6875 153.09375 13.796875 153.4375 13.871094 153.746094 C 13.921875 153.902344 14.257812 154.792969 13.933594 155.035156 C 13.78125 155.117188 13.296875 155.386719 13.140625 155.472656 C 13.03125 155.519531 13.414062 155.679688 13.53125 155.757812 C 13.878906 155.992188 14.585938 156.460938 14.71875 156.546875 C 14.941406 156.667969 15.316406 156.847656 15.269531 157.089844 C 15.253906 157.296875 15.054688 157.3125 14.796875 157.273438 C 14.296875 157.179688 12.578125 157.039062 11.921875 156.988281 C 11.835938 156.976562 11.351562 156.90625 11.292969 156.96875 C 11.21875 157.074219 11.394531 157.148438 11.457031 157.230469 C 11.597656 157.398438 12.003906 157.90625 11.992188 158.238281 C 11.996094 158.496094 11.652344 158.621094 11.453125 158.761719 C 11.347656 158.796875 10.003906 159.621094 9.800781 159.828125 C 10.050781 159.972656 11.554688 160.425781 11.664062 160.433594 C 11.894531 160.511719 12.257812 160.546875 12.316406 160.796875 C 12.414062 161.113281 12.148438 161.710938 12.054688 161.910156 C 12.011719 162.003906 11.863281 162.121094 11.960938 162.207031 C 12.03125 162.25 12.484375 162.054688 12.5625 162.023438 C 13.183594 161.804688 14.808594 161.222656 15.269531 161.003906 C 15.511719 160.898438 15.707031 160.859375 15.773438 161.058594 C 15.878906 161.277344 15.5625 161.546875 15.378906 161.726562 C 15.261719 161.839844 14.753906 162.476562 14.46875 162.789062 C 14.382812 162.894531 14.0625 163.152344 14.179688 163.164062 C 14.351562 163.207031 14.886719 163.339844 15.054688 163.378906 C 15.429688 163.53125 15.328125 164.476562 15.316406 164.644531 C 15.320312 164.960938 15.300781 165.324219 15.371094 165.503906 C 15.488281 165.503906 15.695312 165.414062 15.859375 165.316406 C 16.097656 165.136719 16.816406 164.78125 17.050781 164.632812 C 17.273438 164.488281 17.589844 164.578125 17.78125 164.816406 C 17.863281 164.90625 17.984375 165.097656 18.011719 165.214844 C 18.03125 165.296875 18.035156 165.371094 18.078125 165.339844 C 18.210938 165.234375 18.390625 164.933594 18.496094 164.6875 C 18.601562 164.441406 19.90625 162.007812 20.066406 161.832031 C 20.210938 161.664062 20.289062 161.59375 20.441406 161.511719 C 20.792969 161.429688 21.074219 161.59375 21.386719 161.640625 C 21.433594 161.675781 21.535156 161.636719 21.515625 161.570312 C 21.476562 161.453125 21.363281 161.152344 21.289062 160.945312 C 21.171875 160.554688 20.90625 159.648438 20.84375 159.441406 C 20.746094 159.183594 20.707031 159.019531 20.664062 158.777344 C 20.683594 158.621094 20.882812 158.59375 21.039062 158.5625 C 22.15625 158.429688 23.164062 158.308594 24.070312 158.199219 L 24.003906 157.695312 "/>
<path style=" stroke:none;fill-rule:nonzero;fill:rgb(61.128235%,14.428711%,21.11969%);fill-opacity:1;" d="M 67.441406 242.0625 C 60.761719 237.09375 54.601562 231.433594 49.050781 225.234375 L 54.078125 220.734375 C 59.328125 226.597656 65.15625 231.953125 71.472656 236.652344 L 67.441406 242.0625 "/>
<path style=" stroke:none;fill-rule:nonzero;fill:rgb(100%,100%,100%);fill-opacity:1;" d="M 65.421875 244.769531 C 58.566406 239.664062 52.238281 233.855469 46.539062 227.488281 L 49.050781 225.234375 C 54.601562 231.433594 60.761719 237.09375 67.441406 242.0625 L 65.421875 244.769531 "/>
<path style=" stroke:none;fill-rule:nonzero;fill:rgb(61.128235%,14.428711%,21.11969%);fill-opacity:1;" d="M 61.390625 250.175781 C 54.171875 244.804688 47.511719 238.691406 41.511719 231.988281 L 46.539062 227.488281 C 52.238281 233.855469 58.566406 239.664062 65.421875 244.769531 L 61.390625 250.175781 "/>
<path style=" stroke:none;fill-rule:nonzero;fill:rgb(97.543335%,69.918823%,5.252075%);fill-opacity:1;" d="M 38.691406 228.730469 C 32.902344 221.847656 27.796875 214.382812 23.488281 206.480469 L 28.429688 203.792969 C 32.558594 211.363281 37.449219 218.515625 42.996094 225.113281 L 38.691406 228.730469 "/>
<path style=" stroke:none;fill-rule:nonzero;fill:rgb(76.243591%,12.922668%,17.095947%);fill-opacity:1;" d="M 47.300781 221.496094 C 41.992188 215.1875 37.316406 208.34375 33.367188 201.105469 L 38.308594 198.417969 C 42.074219 205.328125 46.539062 211.855469 51.609375 217.882812 L 47.300781 221.496094 "/>
<path style=" stroke:none;fill-rule:nonzero;fill:rgb(12.718201%,40.756226%,25.959778%);fill-opacity:1;" d="M 42.996094 225.113281 C 37.449219 218.515625 32.558594 211.363281 28.429688 203.792969 L 33.367188 201.105469 C 37.316406 208.34375 41.992188 215.1875 47.300781 221.496094 L 42.996094 225.113281 "/>
<path style=" stroke:none;fill-rule:nonzero;fill:rgb(92.939758%,10.978699%,14.118958%);fill-opacity:1;" d="M 64.902344 252.679688 C 72.28125 257.824219 80.175781 262.234375 88.4375 265.804688 L 95.128906 250.320312 C 87.90625 247.195312 81.003906 243.34375 74.550781 238.839844 L 64.902344 252.679688 "/>
<path style=" stroke:none;fill-rule:nonzero;fill:rgb(100%,100%,100%);fill-opacity:1;" d="M 75.601562 251.253906 L 78.582031 252.96875 L 76.898438 255.914062 L 79.351562 257.320312 L 80.96875 254.34375 L 84.023438 255.90625 L 85.253906 253.488281 L 82.265625 251.957031 L 83.898438 248.953125 L 81.625 247.644531 L 79.929688 250.613281 L 77.011719 248.933594 L 75.601562 251.253906 "/>
<path style=" stroke:none;fill-rule:nonzero;fill:rgb(99.291992%,86.499023%,1.412964%);fill-opacity:1;" d="M 92.433594 267.4375 C 100.804688 270.738281 109.515625 273.1875 118.382812 274.738281 L 121.289062 258.121094 C 113.542969 256.765625 105.933594 254.625 98.617188 251.742188 L 92.433594 267.4375 "/>
<path style=" stroke:none;fill-rule:nonzero;fill:rgb(10.81543%,38.687134%,71.856689%);fill-opacity:1;" d="M 109.570312 272.898438 L 113.957031 273.910156 C 115.421875 274.242188 116.90625 274.460938 118.382812 274.738281 L 119.546875 268.082031 C 118.148438 267.816406 116.734375 267.609375 115.347656 267.296875 L 111.179688 266.335938 L 109.570312 272.898438 "/>
<path style=" stroke:none;fill-rule:nonzero;fill:rgb(10.81543%,38.687134%,71.856689%);fill-opacity:1;" d="M 111.984375 263.070312 L 116.035156 264.003906 C 117.390625 264.3125 118.765625 264.511719 120.128906 264.769531 L 121.289062 258.121094 C 120.003906 257.875 118.703125 257.691406 117.425781 257.402344 L 113.589844 256.515625 L 111.984375 263.070312 "/>
<path style=" stroke:none;fill-rule:nonzero;fill:rgb(10.81543%,38.687134%,71.856689%);fill-opacity:1;" d="M 92.433594 267.4375 C 93.550781 267.867188 94.660156 268.328125 95.785156 268.738281 L 99.195312 269.894531 C 101.453125 270.707031 103.769531 271.332031 106.078125 271.984375 L 107.867188 265.46875 C 105.675781 264.84375 103.472656 264.253906 101.328125 263.480469 L 98.09375 262.386719 C 97.023438 261.996094 95.972656 261.558594 94.910156 261.148438 L 92.433594 267.4375 "/>
<path style=" stroke:none;fill-rule:nonzero;fill:rgb(10.81543%,38.687134%,71.856689%);fill-opacity:1;" d="M 96.144531 258.019531 C 97.175781 258.417969 98.203125 258.847656 99.242188 259.226562 L 102.394531 260.289062 C 104.480469 261.046875 106.621094 261.617188 108.753906 262.222656 L 110.539062 255.71875 C 108.523438 255.140625 106.496094 254.605469 104.527344 253.886719 L 101.546875 252.882812 C 100.5625 252.523438 99.597656 252.117188 98.617188 251.738281 L 96.144531 258.019531 "/>
<path style=" stroke:none;fill-rule:nonzero;fill:rgb(10.81543%,38.687134%,71.856689%);fill-opacity:1;" d="M 189.777344 16.578125 C 188.238281 15.9375 186.65625 15.417969 185.078125 14.886719 C 183.496094 14.367188 181.9375 13.777344 180.324219 13.355469 L 177.644531 22.324219 C 179.144531 22.710938 180.59375 23.265625 182.0625 23.746094 C 183.53125 24.242188 185.003906 24.71875 186.433594 25.316406 L 189.777344 16.578125 "/>
<path style=" stroke:none;fill-rule:nonzero;fill:rgb(100%,100%,100%);fill-opacity:1;" d="M 188.449219 20.054688 L 186.648438 19.347656 L 184.816406 18.726562 L 186.039062 15.214844 L 184.113281 14.5625 L 182.941406 18.09375 C 181.722656 17.679688 180.507812 17.25 179.257812 16.921875 L 178.710938 18.746094 C 179.941406 19.070312 181.140625 19.496094 182.34375 19.902344 L 181.167969 23.441406 L 182.960938 24.050781 L 184.1875 20.527344 L 185.992188 21.136719 L 187.765625 21.832031 L 188.449219 20.054688 "/>
<path style=" stroke:none;fill-rule:nonzero;fill:rgb(10.81543%,38.687134%,71.856689%);fill-opacity:1;" d="M 158.539062 264.929688 C 156.464844 263.726562 154.472656 262.644531 152.515625 261.316406 L 152.894531 265.566406 C 154.789062 265.472656 156.65625 265.136719 158.539062 264.929688 "/>
<path style=" stroke:none;fill-rule:nonzero;fill:rgb(100%,100%,100%);fill-opacity:1;" d="M 153.300781 270.144531 L 153.304688 270.144531 L 153.105469 267.921875 Z M 153.300781 270.144531 "/>
<path style=" stroke:none;fill-rule:nonzero;fill:rgb(100%,100%,100%);fill-opacity:1;" d="M 153.683594 274.398438 L 153.851562 276.25 C 155.285156 275.148438 156.675781 273.914062 158.03125 272.714844 C 159.386719 271.496094 160.714844 270.347656 161.992188 269.082031 L 163.898438 268.742188 C 161.386719 271.335938 158.691406 273.636719 155.871094 276.078125 C 155.203125 276.167969 154.523438 276.191406 153.851562 276.25 L 153.851562 276.253906 C 154.824219 276.1875 155.792969 276.105469 156.757812 275.96875 C 159.324219 273.726562 161.785156 271.566406 164.09375 269.171875 L 165.074219 274.765625 L 165.921875 274.613281 L 164.628906 267.511719 C 162.738281 267.851562 160.847656 268.210938 158.9375 268.414062 C 157.027344 268.628906 155.128906 268.964844 153.207031 269.0625 L 152.992188 266.636719 C 154.875 266.539062 156.738281 266.210938 158.609375 266 C 160.484375 265.800781 162.339844 265.445312 164.195312 265.113281 L 162.90625 258.023438 L 162.164062 258.15625 L 163.144531 263.742188 C 160.300781 262.386719 157.535156 260.765625 154.898438 259.207031 C 154.054688 259.335938 153.203125 259.402344 152.347656 259.460938 L 152.351562 259.464844 C 153.777344 260.410156 155.222656 261.226562 156.703125 262.070312 C 158.1875 262.898438 159.710938 263.785156 161.253906 264.546875 C 160.644531 264.671875 160.023438 264.738281 159.410156 264.816406 L 155.875 262.8125 L 154.15625 261.804688 L 152.460938 260.71875 L 152.515625 261.316406 C 154.472656 262.644531 156.464844 263.726562 158.539062 264.929688 C 156.65625 265.136719 154.789062 265.472656 152.894531 265.566406 L 153.105469 267.921875 L 153.304688 270.144531 C 155.265625 270.042969 157.199219 269.699219 159.148438 269.480469 C 157.390625 271.109375 155.582031 272.871094 153.683594 274.398438 "/>
<path style=" stroke:none;fill-rule:nonzero;fill:rgb(100%,100%,100%);fill-opacity:1;" d="M 177.554688 261.925781 L 177.246094 260.898438 C 175.421875 261.394531 173.617188 261.980469 171.769531 262.40625 C 173.273438 260.601562 174.671875 258.65625 176.027344 256.816406 L 175.492188 255.023438 C 174.5 256.367188 173.472656 257.722656 172.414062 259.085938 C 171.351562 260.433594 170.230469 261.699219 169.085938 263.023438 L 167.28125 263.441406 C 169.597656 260.796875 171.796875 258.265625 173.789062 255.507812 L 173.054688 255.714844 L 171.636719 257.59375 C 171.152344 258.207031 170.652344 258.792969 170.152344 259.398438 C 169.144531 260.601562 168.109375 261.808594 167.046875 263.023438 L 165.890625 257.472656 C 165.644531 257.53125 165.402344 257.589844 165.152344 257.628906 L 166.578125 264.6875 C 168.425781 264.296875 170.257812 263.847656 172.097656 263.429688 C 173.9375 263 175.734375 262.421875 177.554688 261.925781 "/>
<path style=" stroke:none;fill-rule:nonzero;fill:rgb(100%,100%,100%);fill-opacity:1;" d="M 179.957031 269.964844 C 177.21875 269.023438 174.597656 268.1875 171.992188 267.070312 L 170.109375 267.503906 C 171.75 268.160156 173.4375 268.859375 175.136719 269.460938 C 176.828125 270.042969 178.558594 270.613281 180.320312 271.175781 Z M 179.785156 269.390625 L 180.320312 271.179688 L 177.535156 271.972656 L 175.148438 271.171875 C 174.351562 270.886719 173.5625 270.570312 172.78125 270.269531 C 171.214844 269.660156 169.679688 269.042969 168.171875 268.421875 L 169.332031 273.976562 C 169.050781 274.042969 168.773438 274.105469 168.488281 274.152344 L 167.0625 267.078125 C 168.941406 266.675781 170.8125 266.21875 172.6875 265.792969 C 174.5625 265.355469 176.398438 264.765625 178.253906 264.261719 L 178.5625 265.296875 C 176.667969 265.816406 174.796875 266.417969 172.882812 266.863281 C 175.140625 267.800781 177.421875 268.5625 179.785156 269.390625 "/>
<path style=" stroke:none;fill-rule:nonzero;fill:rgb(92.939758%,10.978699%,14.118958%);fill-opacity:1;" d="M 165.152344 257.625 L 162.90625 258.023438 L 165.152344 257.628906 L 165.152344 257.625 "/>
<path style=" stroke:none;fill-rule:nonzero;fill:rgb(92.939758%,10.978699%,14.118958%);fill-opacity:1;" d="M 165.921875 274.613281 L 168.488281 274.152344 L 165.921875 274.613281 "/>
<path style=" stroke:none;fill-rule:nonzero;fill:rgb(92.939758%,10.978699%,14.118958%);fill-opacity:1;" d="M 152.992188 266.636719 L 153.207031 269.0625 C 155.128906 268.964844 157.027344 268.628906 158.9375 268.414062 C 160.847656 268.210938 162.738281 267.851562 164.628906 267.511719 L 165.921875 274.613281 L 168.488281 274.152344 L 167.0625 267.078125 C 168.941406 266.675781 170.8125 266.21875 172.6875 265.792969 C 174.5625 265.355469 176.398438 264.765625 178.253906 264.261719 L 177.554688 261.925781 C 175.734375 262.421875 173.9375 263 172.097656 263.429688 C 170.257812 263.847656 168.425781 264.296875 166.578125 264.6875 L 165.152344 257.628906 L 162.90625 258.023438 L 164.195312 265.113281 C 162.339844 265.445312 160.484375 265.800781 158.609375 266 C 156.738281 266.210938 154.875 266.539062 152.992188 266.636719 "/>
<path style=" stroke:none;fill-rule:nonzero;fill:rgb(92.939758%,10.978699%,14.118958%);fill-opacity:1;" d="M 163.898438 268.742188 L 161.992188 269.082031 C 160.714844 270.347656 159.386719 271.496094 158.03125 272.714844 C 156.675781 273.914062 155.285156 275.148438 153.851562 276.25 C 154.523438 276.191406 155.203125 276.167969 155.871094 276.078125 C 158.691406 273.636719 161.386719 271.335938 163.898438 268.742188 "/>
<path style=" stroke:none;fill-rule:nonzero;fill:rgb(92.939758%,10.978699%,14.118958%);fill-opacity:1;" d="M 169.085938 263.023438 C 170.230469 261.699219 171.351562 260.433594 172.414062 259.085938 C 173.472656 257.722656 174.5 256.367188 175.492188 255.023438 L 173.789062 255.507812 C 171.796875 258.265625 169.597656 260.796875 167.28125 263.441406 L 169.085938 263.023438 "/>
<path style=" stroke:none;fill-rule:nonzero;fill:rgb(92.939758%,10.978699%,14.118958%);fill-opacity:1;" d="M 170.109375 267.503906 C 171.75 268.160156 173.4375 268.859375 175.136719 269.460938 C 176.828125 270.042969 178.558594 270.613281 180.320312 271.175781 L 179.957031 269.964844 C 177.21875 269.023438 174.597656 268.1875 171.992188 267.070312 L 170.109375 267.503906 "/>
<path style=" stroke:none;fill-rule:nonzero;fill:rgb(92.939758%,10.978699%,14.118958%);fill-opacity:1;" d="M 161.253906 264.546875 C 159.710938 263.785156 158.1875 262.898438 156.703125 262.070312 C 155.222656 261.226562 153.777344 260.410156 152.351562 259.464844 L 152.460938 260.71875 L 154.15625 261.804688 L 155.875 262.8125 L 159.410156 264.816406 C 160.023438 264.738281 160.644531 264.671875 161.253906 264.546875 "/>
<path style=" stroke:none;fill-rule:nonzero;fill:rgb(10.81543%,38.687134%,71.856689%);fill-opacity:1;" d="M 165.074219 274.765625 L 164.09375 269.171875 C 161.773438 271.570312 159.300781 273.730469 156.71875 275.972656 C 159.507812 275.609375 162.308594 275.316406 165.074219 274.765625 "/>
<path style=" stroke:none;fill-rule:nonzero;fill:rgb(10.81543%,38.687134%,71.856689%);fill-opacity:1;" d="M 169.332031 273.976562 L 168.171875 268.421875 C 169.679688 269.042969 171.214844 269.660156 172.78125 270.269531 C 173.5625 270.570312 174.351562 270.886719 175.148438 271.171875 L 177.535156 271.972656 L 175.503906 272.542969 L 173.445312 273.027344 L 169.332031 273.976562 "/>
<path style=" stroke:none;fill-rule:nonzero;fill:rgb(10.81543%,38.687134%,71.856689%);fill-opacity:1;" d="M 171.769531 262.40625 C 173.269531 260.597656 174.667969 258.648438 176.023438 256.808594 L 177.246094 260.898438 C 175.417969 261.394531 173.613281 261.980469 171.769531 262.40625 "/>
<path style=" stroke:none;fill-rule:nonzero;fill:rgb(10.81543%,38.687134%,71.856689%);fill-opacity:1;" d="M 159.148438 269.480469 C 157.390625 271.109375 155.578125 272.871094 153.679688 274.394531 L 153.296875 270.144531 C 155.261719 270.042969 157.199219 269.699219 159.148438 269.480469 "/>
<path style=" stroke:none;fill-rule:nonzero;fill:rgb(10.81543%,38.687134%,71.856689%);fill-opacity:1;" d="M 172.875 266.863281 C 175.132812 267.800781 177.410156 268.5625 179.777344 269.390625 L 178.554688 265.300781 C 176.660156 265.820312 174.785156 266.421875 172.875 266.863281 "/>
<path style=" stroke:none;fill-rule:nonzero;fill:rgb(10.81543%,38.687134%,71.856689%);fill-opacity:1;" d="M 162.164062 258.152344 L 163.144531 263.742188 C 160.285156 262.386719 157.507812 260.765625 154.859375 259.207031 C 157.296875 258.882812 159.75 258.640625 162.164062 258.152344 "/>
<path style=" stroke:none;fill-rule:nonzero;fill:rgb(10.81543%,38.687134%,71.856689%);fill-opacity:1;" d="M 165.886719 257.464844 L 167.046875 263.019531 C 168.109375 261.804688 169.144531 260.59375 170.148438 259.390625 C 170.652344 258.785156 171.148438 258.199219 171.636719 257.585938 L 173.054688 255.707031 L 171.28125 256.214844 L 169.484375 256.632812 L 165.886719 257.464844 "/>
<path style=" stroke:none;fill-rule:nonzero;fill:rgb(100%,100%,100%);fill-opacity:1;" d="M 182.09375 139.128906 C 179.25 138.601562 175.515625 138.324219 174.300781 136.601562 C 172.476562 134.011719 174.757812 130.246094 180.722656 130.597656 C 186.125 130.914062 186.863281 135.085938 186.9375 136.707031 L 194.730469 136.707031 C 194.835938 133.652344 193.570312 130.492188 191.675781 128.492188 C 189.253906 125.964844 183.566406 123.328125 176.515625 124.386719 C 172.71875 124.910156 167.664062 127.121094 165.980469 132.074219 C 164.503906 136.707031 165.980469 140.917969 168.824219 143.128906 C 172.402344 145.867188 179.125 146.6875 181.882812 147.238281 C 185.214844 147.90625 187.691406 148.351562 187.28125 151.898438 C 186.847656 155.625 181.070312 156.683594 177.25 155.449219 C 174.523438 154.570312 173.351562 152.394531 172.824219 149.449219 L 164.613281 149.449219 C 164.613281 153.183594 166.835938 157.125 169.085938 158.933594 C 172.421875 161.617188 176.214844 162.5625 180.59375 162.5625 C 186.347656 162.5625 191.109375 161.078125 193.992188 156.820312 C 195.503906 154.585938 197.152344 149.449219 194.519531 144.816406 C 192.203125 140.8125 186.9375 139.972656 182.09375 139.128906 "/>
<path style=" stroke:none;fill-rule:nonzero;fill:rgb(100%,100%,100%);fill-opacity:1;" d="M 154.921875 129.335938 C 151.578125 125.511719 145.71875 123.328125 139.757812 124.277344 C 128.574219 126.058594 125.835938 136.652344 125.332031 140.078125 C 124.382812 146.484375 126.28125 157.242188 137.546875 161.457031 C 142.808594 163.453125 149.445312 162.71875 154.5 159.03125 C 157.34375 156.925781 160.1875 152.1875 160.398438 149.238281 L 151.027344 149.238281 C 150.710938 150.5 149.972656 152.1875 148.289062 153.449219 C 144.496094 156.1875 140.179688 154.398438 138.28125 153.027344 C 135.4375 150.921875 134.386719 147.449219 134.386719 142.496094 C 134.386719 135.640625 137.539062 131.582031 142.980469 131.582031 C 147.90625 131.582031 150.949219 135.820312 150.710938 139.339844 L 137.441406 139.339844 L 137.441406 145.972656 L 160.398438 145.972656 C 160.960938 139.726562 158.054688 132.917969 154.921875 129.335938 "/>
<path style=" stroke:none;fill-rule:nonzero;fill:rgb(100%,100%,100%);fill-opacity:1;" d="M 223.199219 151 C 222.433594 153.199219 220.371094 154.8125 216.460938 155.328125 C 211.300781 156.003906 207.777344 152.804688 210.007812 148.679688 C 212.25 144.539062 220.496094 146.007812 223.621094 142.992188 C 223.621094 143.835938 223.757812 149.390625 223.199219 151 Z M 232.679688 152.367188 C 232.679688 150.402344 232.679688 142.71875 232.679688 140.992188 C 232.679688 139.269531 232.46875 135.117188 231.941406 132.359375 C 231.5625 130.371094 229.847656 127.355469 226.566406 125.71875 C 223.707031 124.292969 221.507812 124.039062 216.851562 124.039062 C 209.855469 124.039062 202.320312 126.472656 202 136.570312 L 210.421875 136.570312 C 210.421875 132.914062 212.953125 130.757812 216.828125 130.757812 C 220.621094 130.757812 223.835938 132.800781 223.097656 136.148438 C 222.355469 139.5 216.171875 139.621094 212.21875 140.152344 C 207.636719 140.761719 201.476562 142.886719 200.003906 149.3125 C 199.476562 151.839844 199.898438 156.472656 203.792969 159.527344 C 206.429688 161.527344 209.226562 162.371094 212.957031 162.371094 C 217.714844 162.371094 221.714844 160.300781 223.9375 158.265625 C 224.042969 158.789062 224.570312 160.789062 224.992188 161.320312 L 233.835938 161.320312 C 232.46875 158.578125 232.679688 154.335938 232.679688 152.367188 "/>
<path style=" stroke:none;fill-rule:nonzero;fill:rgb(100%,100%,100%);fill-opacity:1;" d="M 65.53125 146.4375 C 63.445312 146.4375 61.753906 144.742188 61.753906 142.65625 C 61.753906 140.566406 63.445312 138.875 65.53125 138.875 C 67.621094 138.875 69.3125 140.566406 69.3125 142.65625 C 69.3125 144.742188 67.621094 146.4375 65.53125 146.4375 Z M 94.859375 163.394531 C 79.9375 158.242188 77.175781 144.433594 80.894531 134.769531 C 84.609375 125.105469 97.617188 120.59375 106.648438 127.066406 C 115.679688 133.546875 114.71875 145.972656 114.71875 145.972656 L 91.570312 145.972656 L 91.570312 139.339844 L 105.003906 139.339844 C 105.003906 139.339844 105.378906 136.75 103.144531 134.289062 C 100.160156 131.011719 95.886719 131.046875 93.105469 132.644531 C 89.644531 134.636719 87.265625 141.742188 89.121094 147.992188 C 90.980469 154.238281 96.652344 156.722656 102.109375 156.722656 C 110.019531 156.722656 115.902344 151.257812 115.914062 142.308594 C 115.945312 127.480469 105.945312 113.960938 90.917969 110.148438 C 73.179688 105.648438 55.15625 116.382812 50.652344 134.117188 C 46.152344 151.855469 56.882812 169.886719 74.621094 174.386719 C 87.285156 177.597656 100.09375 173.050781 108.023438 163.730469 C 104.269531 164.839844 99.804688 165.101562 94.859375 163.394531 "/>
</g>
</svg>