<?xml version="1.0" encoding="UTF-8" standalone="no"?>
<!-- Created with Inkscape (http://www.inkscape.org/) -->

<svg
   xmlns:dc="http://purl.org/dc/elements/1.1/"
   xmlns:cc="http://creativecommons.org/ns#"
   xmlns:rdf="http://www.w3.org/1999/02/22-rdf-syntax-ns#"
   xmlns:svg="http://www.w3.org/2000/svg"
   xmlns="http://www.w3.org/2000/svg"
   xmlns:sodipodi="http://sodipodi.sourceforge.net/DTD/sodipodi-0.dtd"
   xmlns:inkscape="http://www.inkscape.org/namespaces/inkscape"
   version="1.1"
   width="1024"
   height="682.6875"
   id="svg2816"
   xml:space="preserve"
   inkscape:version="0.92.3 (2405546, 2018-03-11)"
   sodipodi:docname="Flag_of_FIFA.svg"><metadata
     id="metadata34"><rdf:RDF><cc:Work
         rdf:about=""><dc:format>image/svg+xml</dc:format><dc:type
           rdf:resource="http://purl.org/dc/dcmitype/StillImage" /></cc:Work></rdf:RDF></metadata><sodipodi:namedview
     pagecolor="#ffffff"
     bordercolor="#666666"
     borderopacity="1"
     objecttolerance="10"
     gridtolerance="10"
     guidetolerance="10"
     inkscape:pageopacity="0"
     inkscape:pageshadow="2"
     inkscape:window-width="1920"
     inkscape:window-height="1017"
     id="namedview32"
     showgrid="false"
     fit-margin-top="0"
     fit-margin-left="0"
     fit-margin-right="0"
     fit-margin-bottom="0"
     inkscape:zoom="0.70710678"
     inkscape:cx="615.01566"
     inkscape:cy="187.7392"
     inkscape:window-x="-8"
     inkscape:window-y="-8"
     inkscape:window-maximized="1"
     inkscape:current-layer="svg2816" /><defs
     id="defs2820"><linearGradient
       x1="0"
       y1="0"
       x2="1"
       y2="0"
       id="linearGradient2838"
       gradientUnits="userSpaceOnUse"
       gradientTransform="matrix(0,-556,-556,0,460.05,606.639)"
       spreadMethod="pad"><stop
         id="stop2840"
         style="stop-color:#0095d5;stop-opacity:1"
         offset="0" /><stop
         id="stop2842"
         style="stop-color:#003768;stop-opacity:1"
         offset="1" /></linearGradient><clipPath
       id="clipPath2850"><path
         d="m 891.236,624.779 -878.74,0 0,-612.283 878.74,0 0,612.283 z"
         id="path2852"
         inkscape:connector-curvature="0" /></clipPath><clipPath
       id="clipPath2862"><path
         d="m 892.231,625.86 -432.862,0 0,-480.67 432.862,0 0,480.67 z"
         id="path2864"
         inkscape:connector-curvature="0" /></clipPath><clipPath
       id="clipPath2868"><path
         d="m 460.37,624.78 430.633,0 0.233,-132.352 C 745.038,300.714 596.843,194.838 461.172,146.15 l -0.802,478.63"
         id="path2870"
         inkscape:connector-curvature="0" /></clipPath><clipPath
       id="clipPath2904"><path
         d="m 891.236,624.779 -878.74,0 0,-612.283 878.74,0 0,612.283 z"
         id="path2906"
         inkscape:connector-curvature="0" /></clipPath><linearGradient
       x1="0"
       y1="0"
       x2="1"
       y2="0"
       id="linearGradient2930"
       gradientUnits="userSpaceOnUse"
       gradientTransform="matrix(0,612.126,612.126,0,450.816,12.874)"
       spreadMethod="pad"><stop
         id="stop2932"
         style="stop-color:#003768;stop-opacity:1"
         offset="0" /><stop
         id="stop2934"
         style="stop-color:#0095d5;stop-opacity:1"
         offset="1" /></linearGradient></defs><rect
     style="fill:#093697;fill-opacity:1;stroke:#093697;stroke-width:0.76169014;stroke-opacity:1"
     id="rect3033"
     width="1023.2377"
     height="681.92731"
     x="0.38116455"
     y="0.38009644" /><g
     transform="matrix(2.6829652,0,0,-2.6829652,-1152.9768,621.73428)"
     id="g2826"><g
       transform="matrix(3.0279789,0,0,3.0279789,-1773.2259,-155.95884)"
       id="g3016"
       style="fill:#131a3c;fill-opacity:1"><g
         transform="translate(759.558,98.48)"
         id="g2880"
         style="fill:#131a3c;fill-opacity:1"><path
           d="m 0,0 v -21.32 h 6.734 v 7.698 h 4.679 l 1.819,4.66 H 6.734 v 4.326 h 7.909 L 16.368,0 H 0"
           id="path2882"
           style="fill:#ffffff;fill-opacity:1;fill-rule:evenodd;stroke:none"
           inkscape:connector-curvature="0" /></g><g
         transform="translate(777.985,98.48)"
         id="g2884"
         style="fill:#131a3c;fill-opacity:1"><path
           d="M 0,0 -0.012,-21.32 H 6.644 V 0 H 0"
           id="path2886"
           style="fill:#ffffff;fill-opacity:1;fill-rule:evenodd;stroke:none"
           inkscape:connector-curvature="0" /></g><g
         transform="translate(810.749,84.124)"
         id="g2888"
         style="fill:#131a3c;fill-opacity:1"><path
           d="M 0,0 2.564,8.877 5.22,0 Z M 6.128,14.356 H -0.783 L -8.446,-6.966 h 6.433 l 0.828,2.867 h 7.499 l 0.867,-2.867 h 6.63 L 6.128,14.356"
           id="path2890"
           style="fill:#ffffff;fill-opacity:1;fill-rule:evenodd;stroke:none"
           inkscape:connector-curvature="0" /></g><g
         transform="translate(789.225,98.48)"
         id="g2892"
         style="fill:#131a3c;fill-opacity:1"><path
           d="m 0,0 v -21.32 h 6.73 v 7.698 h 4.674 l 1.832,4.66 H 6.73 v 4.326 h 7.912 L 16.38,0 H 0"
           id="path2894"
           style="fill:#ffffff;fill-opacity:1;fill-rule:evenodd;stroke:none"
           inkscape:connector-curvature="0" /></g><g
         transform="translate(823.148,96.207)"
         id="g2896"
         style="fill:#131a3c;fill-opacity:1"><path
           d="M 0,0 H 0.462 C 0.539,0 0.611,0.007 0.68,0.017 0.749,0.024 0.81,0.045 0.864,0.069 0.916,0.097 0.961,0.14 0.99,0.197 1.021,0.251 1.038,0.322 1.038,0.421 1.038,0.504 1.021,0.571 0.987,0.623 0.953,0.672 0.907,0.713 0.855,0.736 0.8,0.767 0.738,0.786 0.669,0.796 0.605,0.803 0.536,0.807 0.469,0.807 H 0 Z M -0.532,1.205 H 0.521 C 0.864,1.205 1.124,1.144 1.298,1.018 1.473,0.89 1.562,0.677 1.562,0.379 1.562,0.137 1.5,-0.043 1.371,-0.163 1.24,-0.282 1.057,-0.353 0.825,-0.379 L 1.582,-1.613 H 1.043 L 0.314,-0.398 H 0 v -1.215 h -0.532 z m 0.964,-3.424 c 0.262,0 0.507,0.05 0.734,0.147 0.229,0.1 0.425,0.242 0.596,0.419 0.169,0.18 0.304,0.391 0.407,0.637 0.095,0.249 0.144,0.514 0.144,0.803 0,0.291 -0.049,0.559 -0.144,0.805 C 2.066,0.838 1.931,1.049 1.762,1.227 1.591,1.409 1.395,1.544 1.166,1.646 0.939,1.743 0.694,1.792 0.432,1.792 0.17,1.792 -0.075,1.743 -0.303,1.646 -0.532,1.544 -0.731,1.409 -0.902,1.227 -1.07,1.049 -1.204,0.838 -1.306,0.592 -1.404,0.346 -1.452,0.078 -1.452,-0.213 c 0,-0.289 0.048,-0.554 0.146,-0.803 0.102,-0.246 0.236,-0.457 0.404,-0.637 0.171,-0.177 0.37,-0.319 0.599,-0.419 0.228,-0.097 0.473,-0.147 0.735,-0.147 z m 0,-0.485 c -0.344,0 -0.67,0.069 -0.973,0.201 -0.298,0.13 -0.56,0.306 -0.789,0.535 -0.224,0.223 -0.402,0.488 -0.53,0.789 -0.133,0.301 -0.196,0.625 -0.196,0.966 0,0.346 0.063,0.668 0.196,0.968 0.128,0.301 0.306,0.562 0.53,0.789 0.229,0.225 0.491,0.402 0.789,0.533 0.303,0.135 0.629,0.196 0.973,0.196 0.343,0 0.667,-0.061 0.967,-0.196 C 1.7,1.946 1.965,1.769 2.188,1.544 2.412,1.317 2.593,1.056 2.722,0.755 2.852,0.455 2.918,0.133 2.918,-0.213 2.918,-0.554 2.852,-0.878 2.722,-1.179 2.593,-1.48 2.412,-1.745 2.188,-1.968 1.965,-2.197 1.7,-2.373 1.399,-2.503 1.099,-2.635 0.775,-2.704 0.432,-2.704"
           id="path2898"
           style="fill:#ffffff;fill-opacity:1;fill-rule:nonzero;stroke:none"
           inkscape:connector-curvature="0" /></g></g></g></svg>