<?xml version="1.0" encoding="utf-8"?>
<!-- Generator: Adobe Illustrator 25.0.1, SVG Export Plug-In . SVG Version: 6.00 Build 0)  -->
<svg version="1.2" baseProfile="tiny" id="레이어_1"
	 xmlns="http://www.w3.org/2000/svg" xmlns:xlink="http://www.w3.org/1999/xlink" x="0px" y="0px" viewBox="0 0 2048 1599.88"
	 overflow="visible" xml:space="preserve">
<g>
	<g>
		<path fill="#FFFFFF" d="M1446.4352,597.6379c0,233.3033-189.1487,422.4352-422.4352,422.4352
			c-233.309,0-422.4352-189.1319-422.4352-422.4352c0-233.2921,189.1263-422.424,422.4352-422.424
			C1257.2865,175.214,1446.4352,364.3459,1446.4352,597.6379z"/>
		<g>
			<g>
				<g>
					<g>
						<g>
							<g>
								<path fill="#003764" d="M1222.2726,568.1941c-67.1926-45.6655-153.2169-27.0701-198.4481,41.5895
									c-37.6228,57.3881-94.5665,64.5286-116.5009,64.5286c-71.9447,0-121.0325-50.5705-135.6228-102.8713
									c0,0-0.7133-2.6483-0.9-3.2468c-5.7354-21.8624-7.1855-32.2452-7.1855-55.443
									c0-125.0038,128.3552-264.2525,313.0646-264.2525c189.2308,0,297.5304,144.0491,325.5129,224.13
									c-0.5603-1.5052-1.0159-2.8452-1.4716-4.257c-53.6857-156.6066-202.1685-269.1688-377.0836-269.1688
									c-219.9269,0-398.3307,178.3103-398.3307,398.424c0,196.6967,141.8678,365.048,338.6959,365.048
									c156.9036,0,262.3951-87.9688,310.7145-209.2649C1301.2881,687.0406,1282.5228,609.1131,1222.2726,568.1941z"/>
							</g>
							<g>
								<path fill="#E4032E" d="M1404.632,480.363c-23.3407-78.1244-132.3378-231.8645-327.952-231.8645
									c-184.7094,0-313.0646,139.2487-313.0646,264.2525c0,23.1978,1.4501,33.5806,7.1855,55.443
									c-2.4008-9.575-3.6259-19.105-3.6259-28.4269c0-130.2227,130.3543-220.4276,264.3729-220.4276
									c181.4694,0,328.5392,147.0755,328.5392,328.4684c0,142.1918-81.8492,265.3561-200.7117,324.4743v0.1098
									c153.2833-55.5146,262.7417-202.349,262.7417-374.7654C1422.1169,556.8179,1416.646,520.8264,1404.632,480.363z"/>
							</g>
						</g>
					</g>
				</g>
			</g>
		</g>
	</g>
	<g>
		<path fill="#575757" d="M216.0354,1251.0234v-80.4817h28.4048v56.0223h150.9696v24.4594h-76.7996v22.6195h91.002v24.4595H199.2024
			v-24.4595h90.7387v-22.6195H216.0354z M362.007,1357.8046c0,7.3644-1.5367,14.2482-4.6021,20.6469
			c-3.07,6.3986-7.2339,12.0558-12.494,16.9668c-5.0873,4.7327-11.137,8.4995-18.1466,11.3098
			c-7.0154,2.801-14.4667,4.2062-22.3563,4.2062c-7.8907,0-15.3455-1.4052-22.3575-4.2062
			c-7.0131-2.8103-13.0627-6.5771-18.1466-11.3098c-5.2601-4.911-9.4274-10.5682-12.4929-16.9668
			c-3.07-6.3987-4.6033-13.2825-4.6033-20.6469s1.5333-14.2435,4.6033-20.6422c3.0654-6.3986,7.2328-12.0558,12.4929-16.9669
			c5.0839-4.7325,11.1335-8.504,18.1466-11.3097c7.012-2.8011,14.4667-4.2063,22.3575-4.2063
			c7.8896,0,15.3409,1.4052,22.3563,4.2063c7.0096,2.8057,13.0593,6.5771,18.1466,11.3097
			c5.2601,4.9111,9.424,10.5684,12.494,16.9669C360.4702,1343.561,362.007,1350.4402,362.007,1357.8046z M333.8642,1357.8046
			c0-7.8907-2.9373-14.683-8.8096-20.3813c-5.8768-5.6937-12.7572-8.5498-20.6468-8.5498c-7.8907,0-14.7745,2.8561-20.6468,8.5498
			c-5.8769,5.6984-8.8107,12.4906-8.8107,20.3813s2.9338,14.6876,8.8107,20.3859c5.8723,5.6938,12.756,8.5453,20.6468,8.5453
			c7.8896,0,14.7699-2.8514,20.6468-8.5453C330.9269,1372.4922,333.8642,1365.6953,333.8642,1357.8046z"/>
		<path fill="#575757" d="M571.0975,1295.2097H447.4833v-69.9639h92.5798v-22.8802h-92.5798v-24.1986H568.468v70.2247h-92.843
			v23.1459h95.4725V1295.2097z M460.3698,1311.2521h179.3744v84.9534H460.3698V1311.2521z M611.6027,1335.4506H488.5126v36.2955
			h123.0901V1335.4506z M611.3395,1171.5945h28.4048v127.8215h-28.4048V1171.5945z"/>
		<path fill="#575757" d="M769.67,1330.4525v-23.1459h-90.7399v-24.1962h210.4109v24.1962H798.338v23.1459h74.1701v70.7511h-28.4048
			v-46.818H693.1337v-23.9331H769.67z M693.6589,1213.6753v-23.9331h74.9596v-25.2512h30.7722v25.2512h75.2216v23.9331h-77.0627
			l81.0081,43.1335l-14.2036,20.7795l-80.2174-42.6095l-80.2197,42.6095l-14.2024-20.7795l81.0081-43.1335H693.6589z"/>
		<path fill="#575757" d="M981.1279,1170.2762l70.4879,117.3036l-23.1459,13.9415l-47.342-81.5344l-46.8157,83.3744
			l-23.6711-13.9369L981.1279,1170.2762z M956.1422,1319.6692v51.285h154.1254v25.2512H927.7363v-76.5363H956.1422z
			 M1104.4812,1318.3556h-28.4048v-146.7611h28.4048v53.9169h32.8765v28.1416h-32.8765V1318.3556z"/>
		<path fill="#575757" d="M1227.3058,1170.2762l72.329,110.2047l-23.1459,14.9896l-49.1831-76.01l-48.6569,77.8546l-23.6721-14.9943
			L1227.3058,1170.2762z M1176.2815,1313.8838h183.0565v84.688h-28.4059v-59.4368h-154.6506V1313.8838z M1330.9321,1171.5945
			h28.4059v128.6133h-28.4059V1171.5945z"/>
		<path fill="#575757" d="M1489.2616,1320.1954v-18.6741h-90.7388v-24.7249h210.4109v24.7249h-91.002v18.6741h74.1678v76.5364
			h-176.7438v-76.5364H1489.2616z M1412.7263,1174.4871h182.0027v24.4595h-30.2469v35.5083h30.2469v24.194h-182.0027v-24.194
			h30.2458v-35.5083h-30.2458V1174.4871z M1563.9557,1344.3894h-120.4583v27.8831h120.4583V1344.3894z M1536.8691,1198.9465
			h-66.2805v35.5083h66.2805V1198.9465z"/>
		<path fill="#575757" d="M1638.3866,1316.5156h210.411v25.2466h-91.002v58.915h-28.6703v-58.915h-90.7388V1316.5156z
			 M1683.3601,1204.4686h120.4595v-28.9288h28.1438V1285.74h-176.7426v-110.2002h28.1393V1204.4686z M1803.8196,1229.1913h-120.4595
			v31.5629h120.4595V1229.1913z"/>
	</g>
</g>
</svg>
