<?xml version="1.0" encoding="UTF-8"?>
<svg width="600" height="300" version="1.1" viewBox="0 0 600 300" xmlns="http://www.w3.org/2000/svg">
 <rect width="600" height="300" fill="#009edb" style="paint-order:normal"/>
 <g fill="#fff" stroke-width="3.7513">
  <path d="m477.2 91.105c-25.509 0-46.516 20.632-46.516 46.516 0 25.509 20.632 46.516 46.516 46.516 25.509 0 46.516-20.632 46.516-46.516s-21.007-46.516-46.516-46.516m36.012 20.632c-2.2508 1.5005-4.8767 3.001-7.5026 4.5015-1.5005-3.001-3.3761-6.002-5.6269-8.6279 1.8757-1.1254 3.7513-2.6259 5.2518-3.7513 3.3762 1.8756 6.002 4.8767 7.8777 7.8777m-19.507-15.38c3.7513 1.5005 7.1275 3.3762 10.504 6.0021-1.5005 1.5005-3.3761 2.6259-5.2518 3.7513-2.2507-2.6259-4.8766-4.8766-7.5025-7.1274 0.7502-1.1254 1.5005-1.8756 2.2507-2.6259m3.7513 10.504c-2.6259 1.5005-5.2518 2.2508-7.8777 3.3762-1.1253-2.6259-2.2507-5.2518-3.7512-7.5026 1.5005-0.75026 3.001-1.5005 4.1264-2.6259 2.6259 1.8756 5.2518 4.1264 7.5025 6.7523m-5.6269-11.254c-0.7502 0.75025-1.5005 1.5005-1.8756 2.2508-2.6259-1.5005-4.8767-3.001-7.8777-4.1264 3.3761 0 6.7523 0.75026 9.7533 1.8756m-3.3761 3.3762c-1.1254 0.75026-2.2508 1.5005-3.3762 1.8756-1.5005-2.2508-3.001-4.1264-4.5015-6.3772 2.6259 1.1254 5.2518 2.6259 7.8777 4.5015m-10.504-4.1264c1.8756 1.8756 3.3761 4.1264 4.8766 6.7523-1.5005 0.37513-3.001 0.75026-4.8766 0.75026zm0 9.3782c1.8756 0 4.1264-0.37513 6.002-1.1254 1.5005 2.2508 2.6259 4.8766 3.7513 7.5026-3.001 0.75025-6.3772 1.1254-9.7533 1.5005zm-1.8757-9.3782v7.5026c-1.5005 0-3.001-0.37513-4.8766-0.75026 1.8756-2.2508 3.3761-4.5015 4.8766-6.7523m-6.3771 6.002c-1.1254-0.37513-2.6259-1.1254-3.3762-1.8756 2.6259-1.5005 5.2518-3.001 7.8777-4.1264-1.8756 1.8756-3.3761 3.7513-4.5015 6.002m2.6259-7.5026c-2.6259 1.1254-5.2518 2.6259-7.8777 4.1264-0.7503-0.75026-1.5005-1.5005-1.8757-2.2508 3.0011-0.75026 6.3772-1.5005 9.7534-1.8756m31.886 79.527c-6.002-3.3762-6.3771-8.2528-6.002-9.7533 0.3751-1.8756 1.5005-1.1254 2.2507-1.1254 4.1264 0 8.2529-1.1254 13.505-6.7523 6.0021-6.002 7.8777-19.507-1.5005-28.135-9.7533-9.3782-20.257-7.8777-27.009 0.75026-1.5005 1.8756-4.8766 3.001-7.5025 3.001-4.5015 0-1.5005 3.3762-1.5005 4.1264 0 0.75025-0.7503 1.1254-1.1254 1.1254-1.5005-0.37513-0.7503 1.8756-0.7503 2.2508 0 0.37512-0.7502 1.1254-0.7502 1.1254-1.8757 0-1.5005 1.5005-1.1254 2.2508 0 0.37513 0 1.1254-0.7503 1.5005-0.7502 0.37513-1.1253 1.8756-1.1253 3.001 0 1.8756 1.8756 3.3762 4.8766 5.6269 3.001 2.2508 3.3762 4.5015 3.3762 6.002s0.3751 4.1264 0.7502 5.6269c0.7503 1.8756 0.7503 5.6269-3.3761 5.6269-5.2518 0.37513-14.255 4.1264-15.005 4.5015-3.0011 1.1254-6.7523 1.5005-9.7534 0.75025-1.5005-1.1254-3.001-2.2508-4.5015-3.7513-0.7502-1.8756 0.3751-4.1264 1.5005-5.6269 1.8757 1.8756 4.1264 1.5005 5.6269 1.5005 1.5006 0 8.2528-1.1254 9.3782-1.5005s1.5005-0.37513 1.8757 0c2.6259 1.1254 6.3771 1.1254 7.8777-3.7513 1.5005-5.2518-1.8757-3.7513-2.6259-3.3761-0.3752 0.37512-1.1254 0-0.7503-0.37513 0.7503-1.1254-0.3751-1.1254-0.7503-1.1254-1.5005 0-3.3761 1.5005-3.7512 1.8756-0.7503 0.37513-1.1254 0.37513-1.5005 0.37513-1.8757-1.1254-7.5026 0.37513-9.3782-2.6259 0-0.75026-1.5005-13.129-2.2508-15.38 0-0.37512-0.3751-1.1254 0.3751-1.8756 1.5005-2.2508 5.2518 0 7.5026 0 2.6259 0 3.001-1.1254 3.7513-1.8756 0.7502-0.75025 1.1253-0.37512 1.5005-0.75025 0.3751-0.37513 0-0.75026 0-1.1254 0-0.37513 0.3751 0 0.7502-0.37513 0.3752-0.37513 0-1.1254 0-1.5005 0.7503-1.1254 2.2508-0.37513 1.5005-2.6259-0.3751-1.5005 0.3752-3.001 1.1254-3.7513 1.1254-1.5005 6.0021-8.2528-2.2507-15.38-7.8777-6.7523-16.13-6.002-21.382-0.37512-5.2518 5.6269-2.6259 13.88-2.2508 16.13 0.3751 2.2508-1.1254 4.1264-3.001 4.8767-1.5005 0.75025-4.8767 3.001-7.1274 4.8766 0.3751-18.006 11.254-33.761 27.759-40.139 0.7503 0.75026 1.5005 1.8756 2.2508 2.6259-1.8757 1.5005-6.0021 4.8767-6.0021 4.8767s0.3752 0 1.1254 0.37513c0.3751 0 1.1254 0.37512 1.1254 0.37512s3.3761-3.001 5.2518-4.1264c1.1254 1.1254 2.6259 1.8756 4.1264 2.6259-0.7503 1.5005-3.001 5.2518-3.001 5.2518s0.3751 0.37513 0.7502 0.37513c0.3752 0.37512 0.7503 0.37512 0.7503 0.37512s2.2507-4.1264 3.001-5.6269c1.8756 0.75026 3.7513 1.1254 5.6269 1.1254v7.5026c-1.1254 0-3.7513 0-4.8766-0.37513h-0.7503l0.3751 0.75026c0.3752 0.37512 0.3752 0.75025 0.7503 1.1254h4.5015v13.88h1.8757v-3.3762c3.001 0 5.2517-0.37513 7.8776-0.75026l2.6259-2.2508h-1.5005c-3.001 0.37513-5.6269 0.75026-7.8777 0.75026h-1.1253v-8.6279c3.3761 0 7.1274-0.37513 10.504-1.5005 0.7503 2.2508 2.6259 7.8777 2.6259 7.8777l1.8757-0.75026s-1.8757-5.6269-2.6259-7.8777c3.001-0.75025 5.6269-2.2508 8.2528-3.3762 2.2507 2.6259 4.1264 5.6269 5.6269 8.6279-1.5005 0.75026-3.7513 1.5005-3.7513 1.5005 1.8757 0.37513 3.3762 0.75026 3.3762 0.75026s0.7502-0.37513 1.1253-0.37513c0 0.37513 0.3752 1.1254 0.3752 1.1254l2.6259 1.1254-0.3752-0.75026s-0.7502-1.8756-1.1253-2.2508c2.6259-1.1254 5.2517-2.6259 7.8776-4.5015 4.8767 7.1274 7.1275 15.755 7.1275 24.383 0.7502 14.255-6.3772 27.009-16.881 35.262"/>
  <path d="m426.56 103.48-0.7503 0.75026c-2.6259 2.2508-9.003 8.6279-7.8776 15.755v0.37513l0.3751 1.5005 0.7502-0.75026c3.7513-3.3762 6.7523-9.3782 7.8777-16.13l0.3751-1.8756z"/>
  <path d="m413.81 115.49-0.3752 0.75025c-0.3751 1.1254-1.1254 3.7513-1.5005 6.7523-0.7502 4.5015-0.3751 11.254 3.3762 16.13l0.7502 1.5005 0.7503-3.001c0.7502-5.2518-0.3752-16.13-2.2508-21.007l-0.7502-1.5005z"/>
  <path d="m409.3 134.24v0.75026c-0.3751 4.5015 0 16.13 9.3782 22.508l1.1254 0.75025v-1.5005c0-4.5015-5.2518-17.631-9.0031-22.133l-1.1254-1.5005z"/>
  <path d="m410.8 154.88v0.75026c1.5005 6.7523 7.5026 17.256 17.256 20.632l1.5005 0.37513-0.3751-1.5005c-1.8757-4.8767-11.254-16.506-17.256-20.257l-1.1254-0.75025z"/>
  <path d="m430.69 113.61-1.1254 0.37512c-7.1274 4.5015-10.504 9.7533-10.504 16.506v1.5005l1.1254-0.75026c3.7513-3.3762 9.0031-11.629 10.128-16.13l0.3751-1.8756z"/>
  <path d="m426.19 127.87-0.3752 0.75026c-1.8756 1.8756-7.8776 8.2528-7.5025 16.13 0 1.1254 0.3751 2.6259 0.7502 3.7513l0.3752 1.1254 0.7502-1.1254c3.001-4.1264 6.7523-14.63 6.3772-19.507v-1.5005z"/>
  <path d="m426.56 141.75-0.3751 0.75026c-3.0011 4.5015-4.5016 9.0031-4.5016 13.505 0 3.001 1.1254 6.002 3.0011 9.0031l0.7502 1.1254 0.3751-1.1254c1.1254-2.6259 2.2508-10.504 2.2508-16.881 0-2.2508-0.3751-4.1264-0.7503-5.2518l-0.3751-1.5005z"/>
  <path d="m429.94 156.38-0.3751 0.75026c-0.7502 3.001-1.5005 5.6269-1.1254 8.6279 0 6.002 3.0011 10.879 8.2528 14.255l0.7503 0.37513 0.3751-1.1254v-1.1254c0-4.8767-3.7513-17.631-6.7523-21.382l-0.7502-1.1254z"/>
  <path d="m419.81 175.88 0.3751 0.75026c3.7513 6.3772 10.504 15.005 22.883 12.754h1.1254l-0.7503-0.75026c-2.2507-3.3761-17.256-12.004-22.508-12.754l-1.5005-0.37512z"/>
  <path d="m438.19 192.39-1.8757 0.37513 1.8757 0.75025c7.8776 3.3762 17.631 4.1264 23.633 2.2508 2.2508-0.75026 3.3761-1.8756 4.8767-3.3762 10.128 1.1254 19.507 9.3782 25.134 16.13l0.3751 0.37513h0.3752c0.7502-0.37513 1.5005-1.1254 1.8756-1.5005l0.3751-0.37512-0.3751-0.37513c-5.6269-7.5026-14.63-12.004-15.005-12.379-8.2528-3.7513-22.508-6.7523-41.264-1.8756"/>
  <path d="m438.56 171.38v0.75025c1.1254 7.5026 4.1264 17.256 16.881 16.13h0.7503l-0.3751-0.75025c-0.7503-3.3762-12.379-13.129-16.506-15.755l-1.1253-0.75026z"/>
  <path d="m527.09 102.73 0.3751 1.8756c1.1254 6.7523 4.1264 12.754 7.8777 16.13l0.7503 0.75025 0.3751-1.5005v-0.37513c1.1254-7.1274-5.2518-13.505-7.8777-15.755l-0.7502-0.75025z"/>
  <path d="m540.22 114.74-0.7503 1.5005c-1.8756 4.8767-2.6259 15.755-2.2507 21.007l0.7502 3.001 0.3751-0.37513s0.3752-0.75026 0.3752-0.75026c4.1264-4.8767 4.1264-11.254 3.3761-16.13-0.3751-3.3762-1.1254-5.6269-1.5005-6.7523l-0.3751-0.75025z"/>
  <path d="m545.1 133.49-1.1253 1.5005c-3.7513 4.8767-9.0031 17.631-9.0031 22.133v1.5005l1.1254-0.75025c9.3782-6.002 9.7533-17.631 9.3782-22.508v-0.75025z"/>
  <path d="m543.6 154.13-1.5005 0.75025c-6.002 3.7513-15.38 15.38-17.256 20.257l-0.3751 1.5005 1.5005-0.37513c9.7533-3.001 16.13-13.88 17.256-20.632v-0.75026z"/>
  <path d="m523.72 112.86 0.3751 1.8756c1.5005 4.8767 6.002 13.129 10.128 16.506l1.1254 0.75026v-1.5005c0.3751-6.7523-3.001-12.004-10.128-16.506l-0.7503-0.37512z"/>
  <path d="m527.84 127.49v1.5005c-0.3752 4.8767 3.7512 15.755 6.3771 19.507l0.7503 1.1254 0.3751-1.1254c0.3751-1.5005 0.7503-2.6259 0.7503-3.7513 0.3751-7.8777-5.6269-14.255-7.5026-16.13l-0.3751-0.37513z"/>
  <path d="m527.47 141-0.3751 1.5005c-0.3751 1.1254-0.7502 3.001-0.7502 5.2518 0 6.3772 0.7502 14.255 2.2507 16.881l0.3751 1.1254 0.7503-1.1254c1.8756-2.6259 3.001-5.6269 3.001-9.0031 0-4.1264-1.5005-9.0031-4.5015-13.505l-0.3751-0.75025z"/>
  <path d="m524.09 155.63-0.7503 1.1254c-3.001 3.7513-6.7523 16.506-6.7523 21.382v1.1254l0.3752 1.1254 0.7502-0.37513c5.2518-3.3761 7.8777-8.2528 8.2528-14.255 0-2.6259-0.3751-5.6269-1.1254-8.6279l-0.3751-0.75026z"/>
  <path d="m534.97 175.13s-1.5005 0.37513-1.5005 0.37513c-5.2518 0.75025-20.257 9.3782-22.508 12.754l-0.7502 0.75026h1.1253c12.379 2.2508 19.132-6.3772 22.883-12.754l0.3752-0.75025z"/>
  <path d="m475.33 194.27c-0.3751 0-9.3782 4.8767-15.005 12.379l-0.3751 0.37513 0.3751 0.37512c0.3751 0.37513 1.5005 1.1254 1.8756 1.5005h0.3751l0.3752-0.37513c5.6269-6.7523 15.005-15.38 25.134-16.13 1.5005 1.5005 3.0011 2.6259 4.8767 3.3762 5.6269 1.8756 15.755 1.1254 23.633-2.2508l1.8757-0.75025-1.8757-0.37513c-19.132-4.8767-33.386-1.8756-41.264 1.8756"/>
  <path d="m515.84 170.63-1.1254 0.75026c-4.1264 2.6259-15.38 12.379-16.506 15.755l-0.3751 0.75026h0.7502c12.379 1.1254 15.38-8.6279 16.881-16.13v-0.75026z"/>
  <path d="m199.23 95.606h15.755v14.255h-15.755zm1.5005 30.76h13.13v69.774h-13.13z"/>
  <path d="m101.32 126.37h13.13v69.774h-12.754v-10.128h-0.3751c-5.2518 8.6279-14.255 12.379-24.008 12.379-14.63 0-22.883-11.254-22.883-25.134v-46.891h13.13v41.264c0 12.004 2.6259 21.007 15.38 21.007 5.2519 0 12.754-2.6259 15.38-10.128 2.6259-6.3772 2.6259-14.63 2.6259-16.506v-35.637z"/>
  <path d="m140.71 136.5c4.8767-8.6279 14.255-12.379 21.382-12.379 4.8767 0 26.259 1.1254 26.259 23.633v48.016h-13.13v-43.89c0-11.629-4.8766-17.631-16.13-17.631 0 0-7.1275-0.37513-12.754 5.2518-1.8756 1.8756-5.6269 4.8767-5.6269 18.756v37.888h-13.129v-69.774h13.129z"/>
  <path d="m269.01 148.5c-0.7503-8.6279-4.8767-14.63-14.255-14.63-12.379 0-17.256 10.879-17.256 27.009s4.8767 27.009 17.256 27.009c8.628 0 13.88-5.6269 14.63-15.755h13.13c-1.1254 15.755-12.754 25.134-28.135 25.134-22.133 0-31.136-15.755-31.136-36.012s10.128-37.138 32.261-37.138c14.63 0 25.509 9.3782 26.259 24.383z"/>
  <path d="m302.02 163.5c-1.1254 12.004 4.1264 24.758 17.256 24.758 10.128 0 15.38-4.1264 16.881-14.255h13.88c-2.2507 15.755-14.255 23.633-30.76 23.633-22.133 0-31.136-15.755-31.136-36.012s10.128-37.138 32.261-37.138c20.632 0.37513 30.385 13.505 30.385 32.636v6.3772zm35.262-9.0031c0.3751-11.629-4.8767-20.632-17.631-20.632-10.879 0-17.256 9.3782-17.256 20.632z"/>
  <path d="m365.79 195.39v-60.02h-12.004v-9.0031h12.004v-15.005c0.3751-15.005 12.004-19.132 21.757-19.132 3.001 0 6.3772 0.75026 9.3782 1.5005v10.879c-2.2508 0-4.5015-0.37513-6.7523-0.37513-7.5025 0-11.629 1.8756-11.254 9.3782v12.754h16.13v9.0031h-16.13v60.02z"/>
 </g>
</svg>
